<svg xmlns="http://www.w3.org/2000/svg" width="17.438" height="17.438" viewBox="0 0 17.438 17.438">
  <path id="about" d="M-9-15.469A8.72,8.72,0,0,0-17.719-6.75,8.718,8.718,0,0,0-9,1.969,8.718,8.718,0,0,0-.281-6.75,8.72,8.72,0,0,0-9-15.469ZM-9,.281A7.027,7.027,0,0,1-16.031-6.75,7.029,7.029,0,0,1-9-13.781,7.029,7.029,0,0,1-1.969-6.75,7.027,7.027,0,0,1-9,.281ZM-9-11.6a1.477,1.477,0,0,0-1.477,1.477A1.477,1.477,0,0,0-9-8.648a1.477,1.477,0,0,0,1.477-1.477A1.477,1.477,0,0,0-9-11.6Zm1.969,8.93v-.844a.422.422,0,0,0-.422-.422h-.422V-7.453A.422.422,0,0,0-8.3-7.875h-2.25a.422.422,0,0,0-.422.422v.844a.422.422,0,0,0,.422.422h.422v2.25h-.422a.422.422,0,0,0-.422.422v.844a.422.422,0,0,0,.422.422h3.094A.422.422,0,0,0-7.031-2.672Z" transform="translate(17.719 15.469)" fill="#fff"/>
</svg>
