<svg xmlns="http://www.w3.org/2000/svg" width="20.25" height="15.75" viewBox="0 0 20.25 15.75">
  <path id="ads_2" d="M9.844-14.625H9.281A.281.281,0,0,0,9-14.344v.68L-9-9.429v-.415a.281.281,0,0,0-.281-.281h-.562a.281.281,0,0,0-.281.281v6.188a.281.281,0,0,0,.281.281h.563A.281.281,0,0,0-9-3.656v-.415l4.591,1.08A3.3,3.3,0,0,0-4.5-2.25,3.375,3.375,0,0,0-1.125,1.125,3.354,3.354,0,0,0,2.132-1.452L9,.164v.68a.281.281,0,0,0,.281.281h.563a.281.281,0,0,0,.281-.281V-14.344A.281.281,0,0,0,9.844-14.625ZM-1.125,0a2.253,2.253,0,0,1-2.25-2.25,2.1,2.1,0,0,1,.062-.483L1.051-1.706A2.249,2.249,0,0,1-1.125,0ZM-9-5.227V-8.273L9-12.509V-.991Z" transform="translate(10.125 14.625)" fill="#fff"/>
</svg>
