<svg xmlns="http://www.w3.org/2000/svg" width="22.501" height="18" viewBox="0 0 22.501 18">
  <path id="aitihad___taeawun" data-name="aitihad_,_taeawun" d="M-18-12.375a1.688,1.688,0,0,0,1.688-1.687A1.688,1.688,0,0,0-18-15.75a1.688,1.688,0,0,0-1.687,1.688A1.688,1.688,0,0,0-18-12.375Zm13.5,0a1.688,1.688,0,0,0,1.688-1.687A1.688,1.688,0,0,0-4.5-15.75a1.688,1.688,0,0,0-1.687,1.688A1.688,1.688,0,0,0-4.5-12.375ZM-.081.707-1.628-3.161-3.073-1.529l-.07.64.974,2.433a1.124,1.124,0,0,0,1.044.707,1.093,1.093,0,0,0,.418-.081A1.125,1.125,0,0,0-.081.707Zm-1.2-7.376-.65-2.82a2.278,2.278,0,0,0-1.318-1.578,2.169,2.169,0,0,0-1.972.116A3.852,3.852,0,0,0-6.915-8.863l-.4,1.192-.562.359v-3.375a.564.564,0,0,0-.562-.562h-5.625a.564.564,0,0,0-.562.563v3.375l-.566-.359-.4-1.192a3.824,3.824,0,0,0-1.691-2.088,2.17,2.17,0,0,0-1.972-.116A2.278,2.278,0,0,0-20.57-9.489l-.647,2.82a2.252,2.252,0,0,0,.506,1.993l2.362,2.668.355,3.255a1.126,1.126,0,0,0,1.118,1c.042,0,.081,0,.123-.007A1.123,1.123,0,0,0-15.757,1l-.355-3.262a2.247,2.247,0,0,0-.548-1.23l-1.522-1.723.619-2.471.239.717a2.274,2.274,0,0,0,.861,1.146l1.8,1.143a1.5,1.5,0,0,0,.6.176h5.625a1.5,1.5,0,0,0,.6-.176l1.8-1.143a2.259,2.259,0,0,0,.861-1.146l.239-.717.619,2.471L-5.839-3.491a2.247,2.247,0,0,0-.548,1.23L-6.743,1a1.126,1.126,0,0,0,.995,1.241c.042,0,.081.007.123.007a1.126,1.126,0,0,0,1.118-1l.355-3.255,2.362-2.668A2.263,2.263,0,0,0-1.283-6.669ZM-20.872-3.161-22.419.707a1.125,1.125,0,0,0,.626,1.463,1.127,1.127,0,0,0,1.463-.626l.974-2.433-.07-.64Z" transform="translate(22.501 15.75)" fill="#fff"/>
</svg>
