<svg xmlns="http://www.w3.org/2000/svg" width="20.25" height="18" viewBox="0 0 20.25 18">
  <path id="alert" d="M-1.38-8.553l.232,3.938a.422.422,0,0,0,.421.4H.727a.427.427,0,0,0,.421-.4L1.38-8.553A.422.422,0,0,0,.959-9H-.959A.422.422,0,0,0-1.38-8.553Zm2.857,6.3A1.477,1.477,0,0,0,0-3.727,1.477,1.477,0,0,0-1.477-2.25,1.477,1.477,0,0,0,0-.773,1.477,1.477,0,0,0,1.477-2.25ZM1.462-14.907a1.688,1.688,0,0,0-2.923,0L-9.9-.281A1.689,1.689,0,0,0-8.436,2.25H8.435A1.688,1.688,0,0,0,9.9-.281ZM-8.255.246-.183-13.746a.211.211,0,0,1,.365,0L8.255.246a.211.211,0,0,1-.183.316H-8.072A.211.211,0,0,1-8.255.246Z" transform="translate(10.125 15.75)" fill="#fff"/>
</svg>
