<svg xmlns="http://www.w3.org/2000/svg" width="20.25" height="18" viewBox="0 0 20.25 18">
  <path id="analyzing" d="M-7.312-3.375h-2.25a.562.562,0,0,0-.562.563v4.5a.562.562,0,0,0,.563.563h2.25a.562.562,0,0,0,.563-.562v-4.5A.562.562,0,0,0-7.312-3.375Zm-.562,4.5H-9V-2.25h1.125ZM9.563-9H7.313a.562.562,0,0,0-.562.563V1.688a.562.562,0,0,0,.563.563h2.25a.562.562,0,0,0,.563-.562V-8.437A.562.562,0,0,0,9.563-9ZM9,1.125H7.875v-9H9ZM7.55-12.632a1.676,1.676,0,0,0,.887.257,1.687,1.687,0,0,0,1.688-1.687A1.687,1.687,0,0,0,8.438-15.75,1.687,1.687,0,0,0,6.75-14.062a1.669,1.669,0,0,0,.1.55L3.7-10.993a1.673,1.673,0,0,0-.887-.258,1.673,1.673,0,0,0-.887.258l-3.15-2.52a1.667,1.667,0,0,0,.1-.55A1.687,1.687,0,0,0-2.812-15.75,1.687,1.687,0,0,0-4.5-14.062a1.671,1.671,0,0,0,.169.724L-7.714-9.956a1.671,1.671,0,0,0-.724-.169,1.687,1.687,0,0,0-1.687,1.688A1.687,1.687,0,0,0-8.437-6.75,1.687,1.687,0,0,0-6.75-8.437a1.671,1.671,0,0,0-.169-.724l3.383-3.383a1.671,1.671,0,0,0,.724.169,1.673,1.673,0,0,0,.887-.258l3.15,2.52a1.671,1.671,0,0,0-.1.55A1.687,1.687,0,0,0,2.813-7.875,1.687,1.687,0,0,0,4.5-9.562a1.671,1.671,0,0,0-.1-.55Zm.887-1.993A.563.563,0,0,1,9-14.062a.563.563,0,0,1-.562.563.563.563,0,0,1-.562-.562A.563.563,0,0,1,8.438-14.625ZM-8.437-7.875A.563.563,0,0,1-9-8.437.563.563,0,0,1-8.437-9a.563.563,0,0,1,.563.563A.563.563,0,0,1-8.437-7.875ZM-2.812-13.5a.563.563,0,0,1-.562-.562.563.563,0,0,1,.563-.562.563.563,0,0,1,.563.563A.563.563,0,0,1-2.812-13.5ZM2.813-9a.563.563,0,0,1-.562-.562.563.563,0,0,1,.563-.562.563.563,0,0,1,.563.563A.563.563,0,0,1,2.813-9Zm-4.5,0h-2.25a.562.562,0,0,0-.562.563V1.688a.562.562,0,0,0,.563.563h2.25a.562.562,0,0,0,.563-.562V-8.437A.562.562,0,0,0-1.687-9ZM-2.25,1.125H-3.375v-9H-2.25ZM3.938-4.5H1.688a.562.562,0,0,0-.562.563V1.688a.562.562,0,0,0,.563.563h2.25A.562.562,0,0,0,4.5,1.688V-3.937A.562.562,0,0,0,3.938-4.5ZM3.375,1.125H2.25v-4.5H3.375Z" transform="translate(10.125 15.75)" fill="#fff"/>
</svg>
