<svg xmlns="http://www.w3.org/2000/svg" width="375" height="90" viewBox="0 0 375 90">
  <g id="background_4" transform="translate(-655 -2247)">
    <rect id="Rectangle_1471" data-name="Rectangle 1471" width="375" height="90" transform="translate(655 2247)" fill="#f8cb4e"/>
    <path id="Path_133171" data-name="Path 133171" d="M27.219,0H-27.219a2.1,2.1,0,0,0-2.094,2.094V6.281a2.1,2.1,0,0,0,2.094,2.094H27.219a2.1,2.1,0,0,0,2.094-2.094V2.094A2.1,2.1,0,0,0,27.219,0Zm8.375-41.875a6.283,6.283,0,0,0-6.281,6.281A6.152,6.152,0,0,0,29.888-33l-9.474,5.679a4.182,4.182,0,0,1-5.784-1.518L3.965-47.5a6.253,6.253,0,0,0,2.316-4.842A6.283,6.283,0,0,0,0-58.625a6.283,6.283,0,0,0-6.281,6.281A6.253,6.253,0,0,0-3.965-47.5L-14.63-28.841a4.185,4.185,0,0,1-5.784,1.518L-29.875-33a6.311,6.311,0,0,0,.576-2.591,6.283,6.283,0,0,0-6.281-6.281,6.294,6.294,0,0,0-6.294,6.281,6.283,6.283,0,0,0,6.281,6.281,6.424,6.424,0,0,0,1.008-.1l9.461,25.23h50.25l9.461-25.23a6.424,6.424,0,0,0,1.008.1,6.283,6.283,0,0,0,6.281-6.281A6.283,6.283,0,0,0,35.594-41.875Z" transform="translate(843 2318)" fill="#fff" opacity="0.2"/>
  </g>
</svg>
