<svg xmlns="http://www.w3.org/2000/svg" width="18" height="15.75" viewBox="0 0 18 15.75">
  <path id="camera" d="M-6.6-13.5a.285.285,0,0,1,.264.183l.777,2.067h3.871a.564.564,0,0,1,.563.563V-.562A.564.564,0,0,1-1.687,0H-16.312a.564.564,0,0,1-.562-.562V-10.687a.564.564,0,0,1,.563-.562h3.874l.707-1.884A.564.564,0,0,1-11.2-13.5Zm0-1.125H-11.2a1.685,1.685,0,0,0-1.578,1.093l-.436,1.157h-3.094A1.688,1.688,0,0,0-18-10.687V-.562a1.688,1.688,0,0,0,1.688,1.688H-1.687A1.688,1.688,0,0,0,0-.562V-10.687a1.688,1.688,0,0,0-1.687-1.687H-4.781l-.5-1.336A1.4,1.4,0,0,0-6.6-14.625ZM-9-1.406A4.222,4.222,0,0,0-4.781-5.625,4.222,4.222,0,0,0-9-9.844a4.222,4.222,0,0,0-4.219,4.219A4.222,4.222,0,0,0-9-1.406Zm0-7.312A3.1,3.1,0,0,1-5.906-5.625,3.1,3.1,0,0,1-9-2.531a3.1,3.1,0,0,1-3.094-3.094A3.1,3.1,0,0,1-9-8.719Z" transform="translate(18 14.625)" fill="#fff"/>
</svg>
