<svg xmlns="http://www.w3.org/2000/svg" width="22.5" height="15.75" viewBox="0 0 22.5 15.75">
  <path id="card" d="M10.125-14.625h-20.25A1.125,1.125,0,0,0-11.25-13.5V0a1.125,1.125,0,0,0,1.125,1.125h20.25A1.125,1.125,0,0,0,11.25,0V-13.5A1.125,1.125,0,0,0,10.125-14.625ZM10.125,0h-20.25V-13.5h20.25ZM-.844-4.5H1.969a.281.281,0,0,0,.281-.281v-.562a.281.281,0,0,0-.281-.281H-.844a.281.281,0,0,0-.281.281v.563A.281.281,0,0,0-.844-4.5ZM7.594-5.625H4.781a.281.281,0,0,0-.281.281v.563a.281.281,0,0,0,.281.281H7.594a.281.281,0,0,0,.281-.281v-.562A.281.281,0,0,0,7.594-5.625ZM-.844-7.875H7.594a.281.281,0,0,0,.281-.281v-.562A.281.281,0,0,0,7.594-9H-.844a.281.281,0,0,0-.281.281v.563A.281.281,0,0,0-.844-7.875ZM-6.514-6.69l1.483.4A.318.318,0,0,1-4.781-6a.332.332,0,0,1-.354.306h-.926a.875.875,0,0,1-.414-.1.266.266,0,0,0-.325.041l-.424.448a.261.261,0,0,0,.04.393,1.982,1.982,0,0,0,1,.335v.358a.281.281,0,0,0,.281.281h.563a.281.281,0,0,0,.281-.281v-.36A1.447,1.447,0,0,0-3.656-6a1.442,1.442,0,0,0-1.08-1.377l-1.483-.4a.318.318,0,0,1-.249-.292.332.332,0,0,1,.354-.306h.926a.875.875,0,0,1,.414.1.267.267,0,0,0,.325-.041l.424-.448a.261.261,0,0,0-.04-.393,1.982,1.982,0,0,0-1-.335v-.358a.281.281,0,0,0-.281-.281h-.562a.281.281,0,0,0-.281.281v.36A1.447,1.447,0,0,0-7.594-8.067,1.442,1.442,0,0,0-6.514-6.69Z" transform="translate(11.25 14.625)" fill="#fff"/>
</svg>
