<svg xmlns="http://www.w3.org/2000/svg" width="20.256" height="15.753" viewBox="0 0 20.256 15.753">
  <path id="cat_2" d="M9.911-.243a8.946,8.946,0,0,1-1.332-1.93,4.841,4.841,0,0,0,1.547-3.452c0-2.812-2.689-5.136-6.195-5.551C2.827-13.2.221-14.625-2.812-14.625c-4.039,0-7.312,2.517-7.312,5.625A4.853,4.853,0,0,0-8.578-5.548,9.2,9.2,0,0,1-9.9-3.618a.81.81,0,0,0-.155.879.81.81,0,0,0,.745.492,8.081,8.081,0,0,0,4.4-1.364,8.838,8.838,0,0,0,.984.169A7.6,7.6,0,0,0,2.816,0a9.305,9.305,0,0,0,2.1-.239,8.1,8.1,0,0,0,4.4,1.364A.814.814,0,0,0,9.911-.243ZM-4.662-4.711l-.464-.105-.4.26A7.24,7.24,0,0,1-8.61-3.414,9.78,9.78,0,0,0-7.573-5.045l.366-.731-.58-.573A3.754,3.754,0,0,1-9-9c0-2.482,2.777-4.5,6.188-4.5S3.375-11.482,3.375-9,.6-4.5-2.812-4.5A8.175,8.175,0,0,1-4.662-4.711ZM5.527-1.181l-.4-.26-.464.109a8.175,8.175,0,0,1-1.849.211A6.848,6.848,0,0,1-2.545-3.382C1.368-3.495,4.5-5.962,4.5-9a4.472,4.472,0,0,0-.116-.974C7.035-9.464,9-7.71,9-5.625A3.754,3.754,0,0,1,7.787-2.974l-.58.573.362.728A9.944,9.944,0,0,0,8.606-.042,7.242,7.242,0,0,1,5.527-1.181Z" transform="translate(10.125 14.625)" fill="#fff"/>
</svg>
