<svg xmlns="http://www.w3.org/2000/svg" width="20.25" height="18" viewBox="0 0 20.25 18">
  <path id="chat" d="M7.875-10.125H4.5V-13.5a2.252,2.252,0,0,0-2.25-2.25H-7.875a2.252,2.252,0,0,0-2.25,2.25v5.625a2.252,2.252,0,0,0,2.25,2.25H-6.75V-3.8a.421.421,0,0,0,.422.422.4.4,0,0,0,.25-.084l2.7-1.529V-2.25A2.252,2.252,0,0,0-1.125,0H2.25L6.079,2.166a.426.426,0,0,0,.25.084.421.421,0,0,0,.422-.422V0H7.875a2.252,2.252,0,0,0,2.25-2.25V-7.875A2.252,2.252,0,0,0,7.875-10.125ZM-7.875-6.75A1.128,1.128,0,0,1-9-7.875V-13.5a1.128,1.128,0,0,1,1.125-1.125H2.25A1.128,1.128,0,0,1,3.375-13.5v5.625A1.128,1.128,0,0,1,2.25-6.75h-4.8L-2.8-6.6l-2.823,1.6V-6.75ZM9-2.25A1.128,1.128,0,0,1,7.875-1.125H5.625V.619l-2.82-1.6-.257-.148H-1.125A1.128,1.128,0,0,1-2.25-2.25V-5.625h4.5A2.252,2.252,0,0,0,4.5-7.875V-9H7.875A1.128,1.128,0,0,1,9-7.875Z" transform="translate(10.125 15.75)" fill="#fff"/>
</svg>
