<svg xmlns="http://www.w3.org/2000/svg" width="15.75" height="18" viewBox="0 0 15.75 18">
  <path id="copy" d="M-4.5,0h-5.906a1.971,1.971,0,0,1-1.969-1.969V-12.375h-2.531a.844.844,0,0,0-.844.844V1.406a.844.844,0,0,0,.844.844h9.563A.844.844,0,0,0-4.5,1.406Zm0-12.094V-15.75h-5.906a.844.844,0,0,0-.844.844V-1.969a.844.844,0,0,0,.844.844H-.844A.844.844,0,0,0,0-1.969V-11.25H-3.656A.846.846,0,0,1-4.5-12.094Zm4.253-1.091L-2.565-15.5a.969.969,0,0,0-.6-.247h-.213v3.375H0v-.213A.969.969,0,0,0-.247-13.185Z" transform="translate(15.75 15.75)" fill="#fff"/>
</svg>
