<svg xmlns="http://www.w3.org/2000/svg" width="18" height="18" viewBox="0 0 18 18">
  <path id="coust" d="M-11.25-12.375h4.5l1.666-2.5a.661.661,0,0,0,.095-.312.563.563,0,0,0-.562-.562h-6.9a.563.563,0,0,0-.562.563.66.66,0,0,0,.095.312Zm4.5,1.125h-4.5C-18.365-7.193-18-1.806-18-1.125A3.64,3.64,0,0,0-14.141,2.25H-3.858A3.64,3.64,0,0,0,0-1.125C0-1.793.326-7.215-6.75-11.25ZM-8.388-1.477v.61a.306.306,0,0,1-.305.3h-.613a.306.306,0,0,1-.306-.3v-.616a2.61,2.61,0,0,1-1.2-.428.339.339,0,0,1-.118-.238.344.344,0,0,1,.094-.219l.451-.424a.362.362,0,0,1,.21-.081A.368.368,0,0,1-10-2.818a1.107,1.107,0,0,0,.49.141h1.075a.478.478,0,0,0,.451-.5.489.489,0,0,0-.337-.481l-1.723-.511A1.715,1.715,0,0,1-11.25-5.812,1.7,1.7,0,0,1-9.617-7.52v-.615a.306.306,0,0,1,.305-.3H-8.7a.306.306,0,0,1,.305.3v.617a2.607,2.607,0,0,1,1.2.428.339.339,0,0,1,.117.238.344.344,0,0,1-.094.219l-.448.429a.363.363,0,0,1-.21.081A.368.368,0,0,1-8-6.177a1.11,1.11,0,0,0-.49-.141H-9.566a.478.478,0,0,0-.451.5.49.49,0,0,0,.336.481l1.723.511A1.715,1.715,0,0,1-6.749-3.183,1.7,1.7,0,0,1-8.388-1.477Z" transform="translate(18 15.75)" fill="#fff"/>
</svg>
