<svg xmlns="http://www.w3.org/2000/svg" width="15.75" height="18" viewBox="0 0 15.75 18">
  <path id="date" d="M-10.547-5.625a.423.423,0,0,0,.422-.422V-7.453a.423.423,0,0,0-.422-.422h-1.406a.423.423,0,0,0-.422.422v1.406a.423.423,0,0,0,.422.422Zm3.8-.422V-7.453a.423.423,0,0,0-.422-.422H-8.578A.423.423,0,0,0-9-7.453v1.406a.423.423,0,0,0,.422.422h1.406A.423.423,0,0,0-6.75-6.047Zm3.375,0V-7.453A.423.423,0,0,0-3.8-7.875H-5.2a.423.423,0,0,0-.422.422v1.406a.423.423,0,0,0,.422.422H-3.8A.423.423,0,0,0-3.375-6.047ZM-6.75-2.672V-4.078A.423.423,0,0,0-7.172-4.5H-8.578A.423.423,0,0,0-9-4.078v1.406a.423.423,0,0,0,.422.422h1.406A.423.423,0,0,0-6.75-2.672Zm-3.375,0V-4.078a.423.423,0,0,0-.422-.422h-1.406a.423.423,0,0,0-.422.422v1.406a.423.423,0,0,0,.422.422h1.406A.423.423,0,0,0-10.125-2.672Zm6.75,0V-4.078A.423.423,0,0,0-3.8-4.5H-5.2a.423.423,0,0,0-.422.422v1.406A.423.423,0,0,0-5.2-2.25H-3.8A.423.423,0,0,0-3.375-2.672ZM0-11.812A1.688,1.688,0,0,0-1.687-13.5H-3.375v-1.828A.423.423,0,0,0-3.8-15.75H-5.2a.423.423,0,0,0-.422.422V-13.5h-4.5v-1.828a.423.423,0,0,0-.422-.422h-1.406a.423.423,0,0,0-.422.422V-13.5h-1.687a1.688,1.688,0,0,0-1.687,1.688V.563A1.688,1.688,0,0,0-14.062,2.25H-1.687A1.688,1.688,0,0,0,0,.563ZM-1.687.352A.212.212,0,0,1-1.9.563H-13.852a.212.212,0,0,1-.211-.211V-10.125H-1.687Z" transform="translate(15.75 15.75)" fill="#fff"/>
</svg>
