<svg xmlns="http://www.w3.org/2000/svg" width="15.75" height="18" viewBox="0 0 15.75 18">
  <path id="delet" d="M-.281-13.5H-3.937l-1.181-1.575a1.9,1.9,0,0,0-1.35-.675H-9.281a1.9,1.9,0,0,0-1.35.675L-11.812-13.5h-3.656a.281.281,0,0,0-.281.281v.563a.281.281,0,0,0,.281.281h.664L-13.637.714a1.72,1.72,0,0,0,1.68,1.536h8.163A1.72,1.72,0,0,0-2.113.714L-.946-12.375h.664A.281.281,0,0,0,0-12.656v-.562A.281.281,0,0,0-.281-13.5Zm-9.45-.9a.638.638,0,0,1,.45-.225h2.813a.638.638,0,0,1,.45.225l.675.9h-5.062ZM-3.234.612a.569.569,0,0,1-.557.513h-8.166a.569.569,0,0,1-.557-.513l-1.16-12.987h11.6Z" transform="translate(15.75 15.75)" fill="#fff"/>
</svg>
