<svg xmlns="http://www.w3.org/2000/svg" width="18" height="18" viewBox="0 0 18 18">
  <path id="Discount" d="M0-6.75a3.092,3.092,0,0,0-2.007-2.9,3.093,3.093,0,0,0-.629-3.466A3.093,3.093,0,0,0-6.1-13.743,3.092,3.092,0,0,0-9-15.75a3.092,3.092,0,0,0-2.9,2.007,3.092,3.092,0,0,0-3.466.629,3.093,3.093,0,0,0-.629,3.466A3.092,3.092,0,0,0-18-6.75a3.092,3.092,0,0,0,2.007,2.9,3.092,3.092,0,0,0,.629,3.466A3.091,3.091,0,0,0-11.9.243,3.1,3.1,0,0,0-9,2.25,3.092,3.092,0,0,0-6.1.243,3.09,3.09,0,0,0-2.637-.387a3.093,3.093,0,0,0,.629-3.466A3.092,3.092,0,0,0,0-6.75Zm-11.25-3.375A1.125,1.125,0,0,1-10.125-9,1.125,1.125,0,0,1-11.25-7.875,1.125,1.125,0,0,1-12.375-9,1.125,1.125,0,0,1-11.25-10.125Zm.432,6.386a.563.563,0,0,1-.8,0l-.4-.4a.563.563,0,0,1,0-.8l4.829-4.829a.563.563,0,0,1,.8,0l.4.4a.563.563,0,0,1,0,.8Zm4.068.364A1.125,1.125,0,0,1-7.875-4.5,1.125,1.125,0,0,1-6.75-5.625,1.125,1.125,0,0,1-5.625-4.5,1.125,1.125,0,0,1-6.75-3.375Z" transform="translate(18 15.75)" fill="#fff"/>
</svg>
