<svg xmlns="http://www.w3.org/2000/svg" width="12.75" height="17" viewBox="0 0 12.75 17">
  <path id="draw" d="M-8.246-14.875A1.521,1.521,0,0,0-9.7-13.388v4.955a4.514,4.514,0,0,0-.827-.47A1.6,1.6,0,0,0-12.75-7.437a1.415,1.415,0,0,0,.966,1.328c.939.4,2.136,2.611,2.567,3.57a1.594,1.594,0,0,0,1.456.945h5.7a.8.8,0,0,0,.787-.673C-1.038-3.822,0-4.317-.006-6.375c0-.09.006-.44.006-.531C0-8.588-.735-9.615-2.366-9.317a1.521,1.521,0,0,0-2.069-.546,1.633,1.633,0,0,0-2.356-.209v-3.315A1.5,1.5,0,0,0-8.246-14.875Zm.012,13.813a.8.8,0,0,0-.8.8V1.328a.8.8,0,0,0,.8.8h6.375a.8.8,0,0,0,.8-.8V-.266a.8.8,0,0,0-.8-.8Zm5.578.93a.664.664,0,0,1,.664.664.664.664,0,0,1-.664.664A.664.664,0,0,1-3.32.531.664.664,0,0,1-2.656-.133Z" transform="translate(12.75 14.875)" fill="#fff"/>
</svg>
