<svg xmlns="http://www.w3.org/2000/svg" width="18" height="13.5" viewBox="0 0 18 13.5">
  <path id="eamil" d="M-1.687-13.5H-16.312A1.688,1.688,0,0,0-18-11.812V-1.687A1.688,1.688,0,0,0-16.312,0H-1.687A1.688,1.688,0,0,0,0-1.687V-11.812A1.688,1.688,0,0,0-1.687-13.5Zm-14.625,1.125H-1.687a.564.564,0,0,1,.563.563v1.455C-1.895-9.707-3-8.81-6.42-6.093-7.014-5.621-8.184-4.486-9-4.5c-.816.014-1.99-1.121-2.58-1.593C-15-8.81-16.105-9.707-16.875-10.357v-1.455A.564.564,0,0,1-16.312-12.375ZM-1.687-1.125H-16.312a.564.564,0,0,1-.562-.562V-8.895c.8.657,2.067,1.673,4.595,3.681.721.577,1.993,1.846,3.28,1.839,1.28.011,2.542-1.248,3.28-1.839,2.528-2.007,3.793-3.023,4.595-3.681v7.207A.564.564,0,0,1-1.687-1.125Z" transform="translate(18 13.5)" fill="#fff"/>
</svg>
