<svg xmlns="http://www.w3.org/2000/svg" width="16.469" height="16.469" viewBox="0 0 16.469 16.469">
  <path id="earth" d="M-8.234-14.609a8.234,8.234,0,0,0-8.234,8.234A8.234,8.234,0,0,0-8.234,1.859,8.234,8.234,0,0,0,0-6.375,8.234,8.234,0,0,0-8.234-14.609Zm5.313,7.155v.23a.514.514,0,0,1-.285.46l-.511.256a.61.61,0,0,1-.23.054.6.6,0,0,1-.286-.087l-.6-.4a.605.605,0,0,0-.286-.086A.617.617,0,0,0-5.286-7l-.088.029a.514.514,0,0,0-.265.774l.44.659a.514.514,0,0,0,.428.229H-4.5a.515.515,0,0,1,.515.515v.377a.515.515,0,0,1-.1.309l-.622.829a.517.517,0,0,0-.094.213l-.143.758a.516.516,0,0,1-.158.284,6.371,6.371,0,0,0-.83.968l-.433.649A1.029,1.029,0,0,1-7.134,0a.921.921,0,0,1-.824-.509A3.108,3.108,0,0,1-8.234-1.68h0v-.992a.515.515,0,0,0-.515-.515h-.859a1.815,1.815,0,0,1-1.283-.531A2.084,2.084,0,0,1-11.422-5v-.467A1.814,1.814,0,0,1-10.7-6.919l.916-.687a2.119,2.119,0,0,1,1.088-.363h.03a1.81,1.81,0,0,1,.811.192l.489.244a.514.514,0,0,0,.393.028L-5.4-8.029a.515.515,0,0,0,.352-.488.515.515,0,0,0-.515-.515H-5.9a.514.514,0,0,1-.364-.151l-.23-.23a.591.591,0,0,0-.364-.151h-2.99a.515.515,0,0,1-.515-.515v-.146a.515.515,0,0,1,.39-.5l.48-.12a.516.516,0,0,0,.3-.214l.268-.4a.514.514,0,0,1,.428-.229h.8a.515.515,0,0,0,.515-.515v-.721A6.65,6.65,0,0,1-1.8-7.969h-.612A.515.515,0,0,0-2.922-7.454Z" transform="translate(16.469 14.609)" fill="#fff"/>
</svg>
