<svg xmlns="http://www.w3.org/2000/svg" width="20.25" height="18.003" viewBox="0 0 20.25 18.003">
  <path id="edit" d="M4.018-3.625a.276.276,0,0,0-.081.2V.563H-8.437V-11.812H.053a.279.279,0,0,0,.2-.081l1.125-1.125a.283.283,0,0,0-.2-.482H-8.437a1.688,1.688,0,0,0-1.687,1.688V.563A1.688,1.688,0,0,0-8.437,2.25H3.938A1.688,1.688,0,0,0,5.625.563V-4.549a.283.283,0,0,0-.482-.2Zm5.505-7.095a2.059,2.059,0,0,0,0-2.911L8-15.149a2.052,2.052,0,0,0-2.907,0L-4.138-5.917l-.352,3.178a1.452,1.452,0,0,0,1.6,1.6L.292-1.487ZM6.05-9.633-.485-3.1l-2.3.257.257-2.3,6.532-6.536Zm2.278-2.8a.375.375,0,0,1,0,.524L7.246-10.825,5.2-12.867l1.086-1.086a.367.367,0,0,1,.52,0Z" transform="translate(10.125 15.753)" fill="#fff"/>
</svg>
