<svg xmlns="http://www.w3.org/2000/svg" width="15.75" height="18" viewBox="0 0 15.75 18">
  <path id="Engineer" d="M3.15-3.375c-1.01,0-1.492.563-3.15.563s-2.14-.562-3.149-.562h0A4.727,4.727,0,0,0-7.875,1.35a.9.9,0,0,0,.9.9H6.975a.9.9,0,0,0,.9-.9A4.727,4.727,0,0,0,3.15-3.375Zm-9.893,4.5A3.655,3.655,0,0,1-3.149-2.25c.7,0,1.368.563,3.149.563S2.447-2.25,3.15-2.25A3.655,3.655,0,0,1,6.743,1.125Zm1.962-11.25h.445A5.248,5.248,0,0,0-4.5-9,4.5,4.5,0,0,0,0-4.5,4.5,4.5,0,0,0,4.5-9a5.248,5.248,0,0,0-.164-1.125h.445a.281.281,0,0,0,.281-.281v-.562a.281.281,0,0,0-.281-.281H4.5a3.927,3.927,0,0,0-2.894-3.78,1.207,1.207,0,0,0-1.043-.72H-.562a1.207,1.207,0,0,0-1.043.72A3.927,3.927,0,0,0-4.5-11.25h-.281a.281.281,0,0,0-.281.281v.563A.281.281,0,0,0-4.781-10.125ZM1.688-13.82a3.049,3.049,0,0,1,1.688,2.57H1.688Zm-2.25-.805H.563v3.375H-.562ZM-3.375-11.25a3.049,3.049,0,0,1,1.688-2.57v2.57Zm.211,1.125H3.164A3.866,3.866,0,0,1,3.375-9,3.376,3.376,0,0,1,0-5.625,3.376,3.376,0,0,1-3.375-9,3.866,3.866,0,0,1-3.164-10.125Z" transform="translate(7.875 15.75)" fill="#fff"/>
</svg>
