<svg xmlns="http://www.w3.org/2000/svg" width="20.25" height="15.75" viewBox="0 0 20.25 15.75">
  <path id="Gallery" d="M-1.687-14.625H-16.312A1.687,1.687,0,0,0-18-12.937v.563h-.562a1.687,1.687,0,0,0-1.687,1.688V-.562a1.687,1.687,0,0,0,1.688,1.688H-3.937A1.687,1.687,0,0,0-2.25-.562v-.562h.563A1.687,1.687,0,0,0,0-2.812V-12.937A1.687,1.687,0,0,0-1.687-14.625ZM-3.375-.562A.563.563,0,0,1-3.937,0H-18.562a.563.563,0,0,1-.562-.562V-10.687a.563.563,0,0,1,.563-.562H-18v8.438a1.687,1.687,0,0,0,1.688,1.688H-3.375Zm2.25-2.25a.563.563,0,0,1-.562.563H-16.312a.563.563,0,0,1-.562-.562V-12.937a.563.563,0,0,1,.563-.562H-1.687a.563.563,0,0,1,.563.563ZM-14.062-8.719a1.969,1.969,0,0,0,1.969-1.969,1.969,1.969,0,0,0-1.969-1.969,1.969,1.969,0,0,0-1.969,1.969A1.969,1.969,0,0,0-14.062-8.719Zm0-2.812a.845.845,0,0,1,.844.844.845.845,0,0,1-.844.844.845.845,0,0,1-.844-.844A.845.845,0,0,1-14.062-11.531Zm8.472.81a.844.844,0,0,0-1.193,0l-3.341,3.341-1.091-1.091a.844.844,0,0,0-1.193,0L-15.5-5.378a.969.969,0,0,0-.247.6V-3.8a.422.422,0,0,0,.422.422H-2.672A.422.422,0,0,0-2.25-3.8V-7.031a.844.844,0,0,0-.247-.6ZM-3.375-4.5h-11.25v-.165l2.813-2.812,1.688,1.688,3.938-3.937,2.813,2.813Z" transform="translate(20.25 14.625)" fill="#fff"/>
</svg>
