<svg xmlns="http://www.w3.org/2000/svg" width="22.5" height="15.75" viewBox="0 0 22.5 15.75">
  <path id="group_people" d="M7.875-7.875a2.812,2.812,0,0,0,2.813-2.812A2.812,2.812,0,0,0,7.875-13.5a2.812,2.812,0,0,0-2.812,2.813A2.812,2.812,0,0,0,7.875-7.875Zm0-4.5a1.688,1.688,0,0,1,1.688,1.688A1.688,1.688,0,0,1,7.875-9a1.688,1.688,0,0,1-1.687-1.687A1.688,1.688,0,0,1,7.875-12.375ZM0-6.75a3.935,3.935,0,0,0,3.938-3.937A3.935,3.935,0,0,0,0-14.625a3.935,3.935,0,0,0-3.937,3.938A3.935,3.935,0,0,0,0-6.75ZM0-13.5a2.816,2.816,0,0,1,2.813,2.813A2.816,2.816,0,0,1,0-7.875a2.816,2.816,0,0,1-2.812-2.812A2.816,2.816,0,0,1,0-13.5ZM8.578-6.75H7.172A2.543,2.543,0,0,0,5.727-6.3a4.765,4.765,0,0,1,.893.787,1.4,1.4,0,0,1,.552-.116H8.578a1.624,1.624,0,0,1,1.547,1.688.564.564,0,0,0,.563.563.564.564,0,0,0,.563-.562A2.748,2.748,0,0,0,8.578-6.75ZM-7.875-7.875a2.812,2.812,0,0,0,2.813-2.812A2.812,2.812,0,0,0-7.875-13.5a2.812,2.812,0,0,0-2.812,2.813A2.812,2.812,0,0,0-7.875-7.875Zm0-4.5a1.688,1.688,0,0,1,1.688,1.688A1.688,1.688,0,0,1-7.875-9a1.688,1.688,0,0,1-1.687-1.687A1.688,1.688,0,0,1-7.875-12.375ZM2.816-6.047c-1.174,0-1.466.422-2.816.422s-1.642-.422-2.816-.422A3.875,3.875,0,0,0-6.061-4.4,4.029,4.029,0,0,0-6.75-2.137V-.562A1.688,1.688,0,0,0-5.062,1.125H5.063A1.688,1.688,0,0,0,6.75-.562V-2.137A4.029,4.029,0,0,0,6.061-4.4,3.875,3.875,0,0,0,2.816-6.047ZM5.625-.562A.564.564,0,0,1,5.063,0H-5.062a.564.564,0,0,1-.562-.562V-2.137a2.921,2.921,0,0,1,.5-1.631A2.752,2.752,0,0,1-2.82-4.922c.963,0,1.308.422,2.82.422s1.856-.422,2.816-.422a2.751,2.751,0,0,1,2.31,1.153,2.921,2.921,0,0,1,.5,1.631V-.562ZM-5.727-6.3A2.56,2.56,0,0,0-7.172-6.75H-8.578A2.748,2.748,0,0,0-11.25-3.937a.564.564,0,0,0,.563.563.564.564,0,0,0,.563-.562A1.624,1.624,0,0,1-8.578-5.625h1.406a1.4,1.4,0,0,1,.552.116A4.877,4.877,0,0,1-5.727-6.3Z" transform="translate(11.25 14.625)" fill="#fff"/>
</svg>
