<svg xmlns="http://www.w3.org/2000/svg" width="17.438" height="17.438" viewBox="0 0 17.438 17.438">
  <path id="happy" d="M-8.719-15.469A8.717,8.717,0,0,0-17.437-6.75,8.717,8.717,0,0,0-8.719,1.969,8.717,8.717,0,0,0,0-6.75,8.717,8.717,0,0,0-8.719-15.469Zm0,15.75A7.038,7.038,0,0,1-15.75-6.75a7.038,7.038,0,0,1,7.031-7.031A7.038,7.038,0,0,1-1.687-6.75,7.038,7.038,0,0,1-8.719.281Zm4.141-5.147a.843.843,0,0,0-1.188.109A3.837,3.837,0,0,1-8.719-3.371a3.825,3.825,0,0,1-2.953-1.385.846.846,0,0,0-1.188-.109.846.846,0,0,0-.109,1.188,5.519,5.519,0,0,0,4.25,1.99,5.519,5.519,0,0,0,4.25-1.99A.843.843,0,0,0-4.577-4.866Zm-6.954-2.447a1.124,1.124,0,0,0,1.125-1.125,1.124,1.124,0,0,0-1.125-1.125,1.124,1.124,0,0,0-1.125,1.125A1.124,1.124,0,0,0-11.531-7.312Zm5.625-2.109a2.115,2.115,0,0,0-2.106,1.48.422.422,0,0,0,.7.38l.334-.3a1.826,1.826,0,0,1,2.145,0l.334.3a.421.421,0,0,0,.7-.38A2.1,2.1,0,0,0-5.906-9.422Z" transform="translate(17.438 15.469)" fill="#fff"/>
</svg>
