<svg xmlns="http://www.w3.org/2000/svg" width="15.75" height="18" viewBox="0 0 15.75 18">
  <path id="help" d="M3.375-3.375H3.21a3.9,3.9,0,0,0-1.248.239A7.313,7.313,0,0,1,0-2.812a7.313,7.313,0,0,1-1.962-.324,3.883,3.883,0,0,0-1.245-.238h-.167a4.5,4.5,0,0,0-4.5,4.5A1.125,1.125,0,0,0-6.75,2.25H6.75A1.125,1.125,0,0,0,7.875,1.125,4.5,4.5,0,0,0,3.375-3.375ZM-6.75,1.125A3.381,3.381,0,0,1-3.375-2.25h.167a2.8,2.8,0,0,1,.885.179A8.66,8.66,0,0,0,0-1.688a8.66,8.66,0,0,0,2.323-.383,2.81,2.81,0,0,1,.887-.18h.165A3.381,3.381,0,0,1,6.75,1.124Zm.563-9a.563.563,0,0,0,.563-.562V-9A5.632,5.632,0,0,1,0-14.625,5.632,5.632,0,0,1,5.625-9v.563A2.818,2.818,0,0,1,2.813-5.625H1.688A1.125,1.125,0,0,0,.563-6.75H-.562A1.125,1.125,0,0,0-1.687-5.625,1.125,1.125,0,0,0-.562-4.5H2.813A3.946,3.946,0,0,0,6.75-8.437V-9A6.757,6.757,0,0,0,0-15.75,6.757,6.757,0,0,0-6.75-9v.563A.563.563,0,0,0-6.187-7.875ZM0-12.375H.015a3.361,3.361,0,0,1,3.36,3.36A3.882,3.882,0,0,1,2.5-6.758s0,.005.006.008h.3a1.872,1.872,0,0,0,1.426-.794A4.494,4.494,0,0,0,4.5-9,4.5,4.5,0,0,0,0-13.5,4.5,4.5,0,0,0-4.5-9,4.473,4.473,0,0,0-2.8-5.5c0-.041-.012-.08-.012-.122A2.624,2.624,0,0,1-2.5-6.75a3.881,3.881,0,0,1-.878-2.265,3.361,3.361,0,0,1,3.36-3.36Z" transform="translate(7.875 15.75)" fill="#fff"/>
</svg>
