<svg xmlns="http://www.w3.org/2000/svg" width="22.5" height="20" viewBox="0 0 22.5 20">
  <path id="home" d="M-11.25-13.008-19.786-5.48A1.807,1.807,0,0,1-20-5.349V1.875a.625.625,0,0,0,.625.625h5a.625.625,0,0,0,.625-.625v-5a.625.625,0,0,1,.625-.625h3.75a.625.625,0,0,1,.625.625v5a.625.625,0,0,0,.625.625h5A.625.625,0,0,0-2.5,1.875V-5.348a1.818,1.818,0,0,1-.205-.125ZM-.207-8.27l-10-8.828a1.8,1.8,0,0,0-1.044-.4,1.8,1.8,0,0,0-1.044.4l-10,8.828a.713.713,0,0,0-.207.465.723.723,0,0,0,.16.418l.836.93a.713.713,0,0,0,.465.207.723.723,0,0,0,.418-.16l8.958-7.9a.723.723,0,0,1,.413-.156.723.723,0,0,1,.413.156l8.958,7.9a.723.723,0,0,0,.418.16A.713.713,0,0,0-1-6.457l.836-.93A.723.723,0,0,0,0-7.805.713.713,0,0,0-.207-8.27Z" transform="translate(22.5 17.5)" fill="#fff"/>
</svg>
