<svg xmlns="http://www.w3.org/2000/svg" width="22.5" height="18" viewBox="0 0 22.5 18">
  <path id="idea" d="M0-13.5A3.946,3.946,0,0,0-3.937-9.562.563.563,0,0,0-3.375-9a.563.563,0,0,0,.563-.562A2.818,2.818,0,0,1,0-12.375a.563.563,0,0,0,.563-.562A.563.563,0,0,0,0-13.5Zm0-2.25a6.163,6.163,0,0,0-6.187,6.2h0A7.122,7.122,0,0,0-4.656-5.492,9.553,9.553,0,0,1-2.812-2.25l0,2.643A.656.656,0,0,0-2.716.7L-1.854,2a.628.628,0,0,0,.468.251H1.386A.628.628,0,0,0,1.854,2L2.716.7A.668.668,0,0,0,2.81.393l0-2.643A9.549,9.549,0,0,1,4.656-5.492,7.16,7.16,0,0,0,6.188-9.566,6.186,6.186,0,0,0,0-15.75ZM1.685.222l-.6.9h-2.17l-.6-.9V0H1.686Zm0-1.347H-1.687l0-1.125H1.688ZM3.811-6.234A11.967,11.967,0,0,0,2.033-3.376H-2.031A11.99,11.99,0,0,0-3.81-6.234,5.84,5.84,0,0,1-5.06-9.557v-.005A5.022,5.022,0,0,1,0-14.625,5.068,5.068,0,0,1,5.063-9.562,5.849,5.849,0,0,1,3.81-6.234ZM-7.875-9.562a.563.563,0,0,0-.562-.562h-2.25a.563.563,0,0,0-.562.563A.563.563,0,0,0-10.687-9h2.25A.563.563,0,0,0-7.875-9.562ZM7.313-13.5a.675.675,0,0,0,.252-.059l2.25-1.125a.616.616,0,0,0,.311-.5.563.563,0,0,0-.563-.563.668.668,0,0,0-.252.059l-2.25,1.125a.616.616,0,0,0-.311.5.563.563,0,0,0,.563.563Zm3.375,3.375H8.438a.563.563,0,0,0-.562.563A.563.563,0,0,0,8.438-9h2.25a.563.563,0,0,0,.563-.562A.563.563,0,0,0,10.688-10.125ZM-7.061-14.566l-2.25-1.125a.668.668,0,0,0-.252-.059.563.563,0,0,0-.563.563.616.616,0,0,0,.311.5l2.25,1.125a.675.675,0,0,0,.252.059h0a.563.563,0,0,0,.563-.562A.616.616,0,0,0-7.061-14.566ZM9.814-4.441,7.564-5.566a.668.668,0,0,0-.252-.059.563.563,0,0,0-.563.563.616.616,0,0,0,.311.5l2.25,1.125a.668.668,0,0,0,.252.059.563.563,0,0,0,.563-.563A.616.616,0,0,0,9.814-4.441ZM-7.312-5.625a.675.675,0,0,0-.252.059l-2.25,1.125a.616.616,0,0,0-.311.5.563.563,0,0,0,.563.563.668.668,0,0,0,.252-.059l2.25-1.125a.616.616,0,0,0,.312-.5.563.563,0,0,0-.562-.562Z" transform="translate(11.25 15.75)" fill="#fff"/>
</svg>
