<svg xmlns="http://www.w3.org/2000/svg" width="17.557" height="17.553" viewBox="0 0 17.557 17.553">
  <path id="instagram" d="M8.705,36.1a4.5,4.5,0,1,0,4.5,4.5A4.493,4.493,0,0,0,8.705,36.1Zm0,7.426A2.926,2.926,0,1,1,11.631,40.6,2.931,2.931,0,0,1,8.705,43.527Zm5.734-7.61a1.05,1.05,0,1,1-1.05-1.05A1.047,1.047,0,0,1,14.44,35.917Zm2.981,1.065A5.2,5.2,0,0,0,16,33.3a5.229,5.229,0,0,0-3.678-1.418c-1.449-.082-5.793-.082-7.242,0A5.221,5.221,0,0,0,1.4,33.3,5.212,5.212,0,0,0-.013,36.978c-.082,1.449-.082,5.793,0,7.242A5.2,5.2,0,0,0,1.4,47.9a5.236,5.236,0,0,0,3.678,1.418c1.449.082,5.793.082,7.242,0A5.2,5.2,0,0,0,16,47.9a5.229,5.229,0,0,0,1.418-3.678C17.5,42.771,17.5,38.432,17.42,36.982Zm-1.872,8.793a2.962,2.962,0,0,1-1.669,1.669c-1.155.458-3.9.353-5.174.353s-4.023.1-5.174-.353a2.962,2.962,0,0,1-1.669-1.669C1.4,44.62,1.51,41.878,1.51,40.6s-.1-4.023.353-5.174a2.962,2.962,0,0,1,1.669-1.669c1.155-.458,3.9-.353,5.174-.353s4.023-.1,5.174.353a2.962,2.962,0,0,1,1.669,1.669c.458,1.155.353,3.9.353,5.174S16.006,44.624,15.548,45.776Z" transform="translate(0.075 -31.825)" fill="#fff"/>
</svg>
