<svg xmlns="http://www.w3.org/2000/svg" width="17" height="13.813" viewBox="0 0 17 13.813">
  <path id="List" d="M-14.344-2.656h-2.125A.531.531,0,0,0-17-2.125V0a.531.531,0,0,0,.531.531h2.125A.531.531,0,0,0-13.812,0V-2.125A.531.531,0,0,0-14.344-2.656Zm0-10.625h-2.125A.531.531,0,0,0-17-12.75v2.125a.531.531,0,0,0,.531.531h2.125a.531.531,0,0,0,.531-.531V-12.75A.531.531,0,0,0-14.344-13.281Zm0,5.313h-2.125A.531.531,0,0,0-17-7.437v2.125a.531.531,0,0,0,.531.531h2.125a.531.531,0,0,0,.531-.531V-7.437A.531.531,0,0,0-14.344-7.969ZM-.531-2.125H-11.156a.531.531,0,0,0-.531.531V-.531A.531.531,0,0,0-11.156,0H-.531A.531.531,0,0,0,0-.531V-1.594A.531.531,0,0,0-.531-2.125Zm0-10.625H-11.156a.531.531,0,0,0-.531.531v1.063a.531.531,0,0,0,.531.531H-.531A.531.531,0,0,0,0-11.156v-1.062A.531.531,0,0,0-.531-12.75Zm0,5.313H-11.156a.531.531,0,0,0-.531.531v1.063a.531.531,0,0,0,.531.531H-.531A.531.531,0,0,0,0-5.844V-6.906A.531.531,0,0,0-.531-7.437Z" transform="translate(17 13.281)" fill="#fff"/>
</svg>
