<svg xmlns="http://www.w3.org/2000/svg" width="20.25" height="18" viewBox="0 0 20.25 18">
  <path id="map" d="M-10.125-15.75a4.43,4.43,0,0,0-4.43,4.43c0,1.978,2.9,5.583,4,6.891a.554.554,0,0,0,.851,0c1.109-1.309,4-4.913,4-6.891A4.43,4.43,0,0,0-10.125-15.75Zm0,5.906A1.476,1.476,0,0,1-11.6-11.32,1.476,1.476,0,0,1-10.125-12.8,1.476,1.476,0,0,1-8.648-11.32,1.476,1.476,0,0,1-10.125-9.844Zm-9.418,1.686a1.214,1.214,0,0,0-.707,1.044v8.8a.563.563,0,0,0,.771.522L-14.625,0V-8.194a10.645,10.645,0,0,1-.747-1.632Zm9.418,5.053a1.68,1.68,0,0,1-1.284-.6c-.691-.816-1.426-1.744-2.091-2.7V0l6.75,2.25V-6.4c-.665.952-1.4,1.882-2.091,2.7A1.681,1.681,0,0,1-10.125-3.105Zm9.354-6.979L-5.625-7.875V2.25L-.707.283A1.213,1.213,0,0,0,0-.761v-8.8A.563.563,0,0,0-.771-10.084Z" transform="translate(20.25 15.75)" fill="#fff"/>
</svg>
