<svg xmlns="http://www.w3.org/2000/svg" width="42.675" height="47.018" viewBox="0 0 42.675 47.018">
  <g id="menu_3" transform="translate(-166.861 -727.254)">
    <path id="Path_131775" data-name="Path 131775" d="M102.1,253.47V237.261a7.3,7.3,0,0,0-3.65-6.322l-14.037-8.1a7.3,7.3,0,0,0-7.3,0l-14.037,8.1a7.3,7.3,0,0,0-3.65,6.322V253.47a7.3,7.3,0,0,0,3.65,6.322l14.037,8.1a7.3,7.3,0,0,0,7.3,0l14.037-8.1A7.3,7.3,0,0,0,102.1,253.47Z" transform="translate(107.435 505.397)" fill="#d5d8dc"/>
    <path id="Path_133173" data-name="Path 133173" d="M6.875-8.75H1.25v-5.625A.625.625,0,0,0,.625-15H-.625a.625.625,0,0,0-.625.625V-8.75H-6.875a.625.625,0,0,0-.625.625v1.25a.625.625,0,0,0,.625.625H-1.25V-.625A.625.625,0,0,0-.625,0H.625A.625.625,0,0,0,1.25-.625V-6.25H6.875A.625.625,0,0,0,7.5-6.875v-1.25A.625.625,0,0,0,6.875-8.75Z" transform="translate(188 759)" fill="#fff"/>
  </g>
</svg>
