<svg xmlns="http://www.w3.org/2000/svg" xmlns:xlink="http://www.w3.org/1999/xlink" width="68.397" height="73.526" viewBox="0 0 68.397 73.526">
  <defs>
    <filter id="Path_131775" x="0" y="0" width="68.397" height="73.526" filterUnits="userSpaceOnUse">
      <feOffset dy="3" input="SourceAlpha"/>
      <feGaussianBlur stdDeviation="3" result="blur"/>
      <feFlood flood-color="#7ac04e" flood-opacity="0.251"/>
      <feComposite operator="in" in2="blur"/>
      <feComposite in="SourceGraphic"/>
    </filter>
  </defs>
  <g id="menu_2" transform="translate(-154 -717)">
    <g transform="matrix(1, 0, 0, 1, 154, 717)" filter="url(#Path_131775)">
      <path id="Path_131775-2" data-name="Path 131775" d="M109.823,259.19V240.048a8.62,8.62,0,0,0-4.311-7.466l-16.577-9.571a8.623,8.623,0,0,0-8.621,0l-16.577,9.571a8.62,8.62,0,0,0-4.311,7.466V259.19a8.62,8.62,0,0,0,4.311,7.466l16.577,9.571a8.623,8.623,0,0,0,8.621,0l16.577-9.571A8.62,8.62,0,0,0,109.823,259.19Z" transform="translate(-50.43 -215.86)" fill="#7ac04e"/>
    </g>
    <path id="Path_133172" data-name="Path 133172" d="M6.875-8.75H1.25v-5.625A.625.625,0,0,0,.625-15H-.625a.625.625,0,0,0-.625.625V-8.75H-6.875a.625.625,0,0,0-.625.625v1.25a.625.625,0,0,0,.625.625H-1.25V-.625A.625.625,0,0,0-.625,0H.625A.625.625,0,0,0,1.25-.625V-6.25H6.875A.625.625,0,0,0,7.5-6.875v-1.25A.625.625,0,0,0,6.875-8.75Z" transform="translate(188.5 758.001)" fill="#fff"/>
  </g>
</svg>
