<svg xmlns="http://www.w3.org/2000/svg" width="3.375" height="14.063" viewBox="0 0 3.375 14.063">
  <path id="menu" d="M-2.25-8.437A1.688,1.688,0,0,0-3.937-6.75,1.688,1.688,0,0,0-2.25-5.062,1.688,1.688,0,0,0-.562-6.75,1.688,1.688,0,0,0-2.25-8.437Zm-1.687-3.656A1.688,1.688,0,0,0-2.25-10.406,1.688,1.688,0,0,0-.562-12.094,1.688,1.688,0,0,0-2.25-13.781,1.688,1.688,0,0,0-3.937-12.094Zm0,10.688A1.688,1.688,0,0,0-2.25.281,1.688,1.688,0,0,0-.562-1.406,1.688,1.688,0,0,0-2.25-3.094,1.688,1.688,0,0,0-3.937-1.406Z" transform="translate(3.938 13.781)" fill="#fff"/>
</svg>
