<svg xmlns="http://www.w3.org/2000/svg" width="12.375" height="18" viewBox="0 0 12.375 18">
  <path id="Microphone" d="M-.562-5h-.562a.562.562,0,0,1-.562-.562V-7.25a4.505,4.505,0,0,0-4.95-4.478,4.637,4.637,0,0,0-4.05,4.679v1.487A.562.562,0,0,1-11.25-5h-.562a.562.562,0,0,1-.562-.562V-6.974a6.381,6.381,0,0,1,5.344-6.388v-1.2H-9a.562.562,0,0,1-.562-.562v-.562A.562.562,0,0,1-9-16.25h5.625a.562.562,0,0,1,.563.563v.563a.562.562,0,0,1-.562.563H-5.344v1.187A6.194,6.194,0,0,1,0-7.25v1.688A.562.562,0,0,1-.562-5Zm-5.625-5.625A3.375,3.375,0,0,1-2.812-7.25v5.625A3.375,3.375,0,0,1-6.187,1.75,3.375,3.375,0,0,1-9.562-1.625V-7.25A3.375,3.375,0,0,1-6.187-10.625Zm-1.687,9A1.689,1.689,0,0,0-6.187.063,1.689,1.689,0,0,0-4.5-1.625V-7.25A1.689,1.689,0,0,0-6.187-8.937,1.689,1.689,0,0,0-7.875-7.25Z" transform="translate(0 1.75) rotate(180)" fill="#fff"/>
</svg>
