<svg xmlns="http://www.w3.org/2000/svg" width="22.5" height="13.5" viewBox="0 0 22.5 13.5">
  <path id="money_2" d="M10.125-13.5h-20.25a1.124,1.124,0,0,0-1.125,1.125v11.25A1.124,1.124,0,0,0-10.125,0h20.25A1.124,1.124,0,0,0,11.25-1.125v-11.25A1.124,1.124,0,0,0,10.125-13.5Zm-20.25,1.125h2.25a2.252,2.252,0,0,1-2.25,2.25Zm0,11.25v-2.25a2.252,2.252,0,0,1,2.25,2.25Zm20.25,0H7.875a2.252,2.252,0,0,1,2.25-2.25Zm0-3.375A3.38,3.38,0,0,0,6.75-1.125H-6.75A3.38,3.38,0,0,0-10.125-4.5V-9A3.38,3.38,0,0,0-6.75-12.375H6.75A3.38,3.38,0,0,0,10.125-9Zm0-5.625a2.252,2.252,0,0,1-2.25-2.25h2.25ZM0-11.25a4.246,4.246,0,0,0-3.937,4.5A4.246,4.246,0,0,0,0-2.25a4.248,4.248,0,0,0,3.938-4.5A4.246,4.246,0,0,0,0-11.25ZM0-3.375A3.137,3.137,0,0,1-2.812-6.75,3.137,3.137,0,0,1,0-10.125,3.137,3.137,0,0,1,2.813-6.75,3.137,3.137,0,0,1,0-3.375ZM1.125-5.621H.563V-8.715A.282.282,0,0,0,.281-9H-.2a.849.849,0,0,0-.468.141l-.538.359a.282.282,0,0,0-.077.39l.313.468a.282.282,0,0,0,.39.077l.018-.011v1.948h-.562a.282.282,0,0,0-.281.281v.563a.282.282,0,0,0,.281.281h2.25a.282.282,0,0,0,.281-.281v-.562A.277.277,0,0,0,1.125-5.621Z" transform="translate(11.25 13.5)" fill="#fff"/>
</svg>
