<svg xmlns="http://www.w3.org/2000/svg" width="18" height="15.75" viewBox="0 0 18 15.75">
  <path id="money" d="M2.813-14.625a10.953,10.953,0,0,0-4.377.823c-.032.014-1.811.738-1.811,1.99v.587C-6.325-11.1-9-10.005-9-8.437v6.75C-9-.134-6.23,1.125-2.812,1.125S3.375-.134,3.375-1.687v-.577C6.529-2.394,9-3.6,9-5.062v-6.75C9-13.113,6.817-14.625,2.813-14.625ZM2.25-1.687C2.25-1.2.475,0-2.812,0S-7.875-1.2-7.875-1.687V-3.449a9.757,9.757,0,0,0,5.063,1.2,9.757,9.757,0,0,0,5.063-1.2Zm0-3.375c0,.489-1.775,1.688-5.062,1.688s-5.062-1.2-5.062-1.687V-6.824a9.757,9.757,0,0,0,5.063,1.2,9.757,9.757,0,0,0,5.063-1.2ZM-2.812-6.75c-2.848,0-5.157-.756-5.157-1.687s2.31-1.687,5.157-1.687,5.157.756,5.157,1.688S.035-6.75-2.812-6.75ZM7.875-5.062c0,.461-1.582,1.533-4.5,1.663V-5.653a9.365,9.365,0,0,0,4.5-1.171Zm0-3.375c0,.461-1.586,1.526-4.5,1.659V-8.437a1.4,1.4,0,0,0-.144-.573A9.428,9.428,0,0,0,7.875-10.2ZM2.813-10.125c-.257,0-.492-.018-.735-.032a9.527,9.527,0,0,0-4.064-1.055.825.825,0,0,1-.355-.6c0-.932,2.31-1.687,5.157-1.687s5.157.756,5.157,1.688S5.66-10.125,2.813-10.125Z" transform="translate(9 14.625)" fill="#fff"/>
</svg>
