<svg xmlns="http://www.w3.org/2000/svg" width="18" height="17.999" viewBox="0 0 18 17.999">
  <path id="Music_" data-name="Music " d="M-1.463-15.7l-11.249,3.322A1.2,1.2,0,0,0-13.5-11.3v9.19a5.876,5.876,0,0,0-1.125-.138C-16.488-2.25-18-1.242-18,0s1.512,2.25,3.375,2.25S-11.25,1.242-11.25,0V-8.215l9-2.637v6.49A5.851,5.851,0,0,0-3.375-4.5C-5.238-4.5-6.75-3.492-6.75-2.25S-5.238,0-3.375,0,0-1.007,0-2.25V-14.625a1.126,1.126,0,0,0-1.125-1.124A1.35,1.35,0,0,0-1.463-15.7Z" transform="translate(18 15.749)" fill="#fff"/>
</svg>
