<svg xmlns="http://www.w3.org/2000/svg" width="15.75" height="18" viewBox="0 0 15.75 18">
  <path id="notfcation" d="M0,1.125A1.127,1.127,0,0,1-1.125,0H-2.25A2.253,2.253,0,0,0,0,2.25,2.253,2.253,0,0,0,2.25,0H1.125A1.127,1.127,0,0,1,0,1.125Zm7.361-5.1c-.983-.936-1.735-1.915-1.735-5.235A5.485,5.485,0,0,0,.563-14.571v-.617A.562.562,0,0,0,0-15.75a.562.562,0,0,0-.562.563v.617A5.485,5.485,0,0,0-5.626-9.214c0,3.319-.752,4.3-1.735,5.235a1.636,1.636,0,0,0-.4,1.8A1.678,1.678,0,0,0-6.187-1.125H6.188A1.678,1.678,0,0,0,7.757-2.179,1.636,1.636,0,0,0,7.361-3.979ZM6.188-2.25H-6.187a.534.534,0,0,1-.4-.914C-5.36-4.331-4.5-5.637-4.5-9.214A4.4,4.4,0,0,1,0-13.5,4.4,4.4,0,0,1,4.5-9.214c0,3.563.851,4.876,2.084,6.05A.534.534,0,0,1,6.188-2.25Z" transform="translate(7.875 15.75)" fill="#fff"/>
</svg>
