<svg xmlns="http://www.w3.org/2000/svg" width="18" height="18" viewBox="0 0 18 18">
  <path id="phone_2" d="M-.514-3.03-4.451-4.718a1.006,1.006,0,0,0-.331-.068.956.956,0,0,0-.654.31l-1.744,2.13a15.139,15.139,0,0,1-6.229-6.229l2.13-1.744a.954.954,0,0,0,.311-.653,1,1,0,0,0-.068-.331l-1.687-3.937a.921.921,0,0,0-.779-.51,1.021,1.021,0,0,0-.188.021l-3.656.844a.884.884,0,0,0-.654.822h0A16.311,16.311,0,0,0-1.687,2.25h0A.884.884,0,0,0-.865,1.6L-.021-2.06A1.028,1.028,0,0,0,0-2.247.926.926,0,0,0-.514-3.03Z" transform="translate(18 15.75)" fill="#fff"/>
</svg>
