<svg xmlns="http://www.w3.org/2000/svg" width="11.25" height="18" viewBox="0 0 11.25 18">
  <path id="phone" d="M-4.359,0a.423.423,0,0,0,.422-.422V-.7a.423.423,0,0,0-.422-.422H-6.891A.423.423,0,0,0-7.312-.7v.281A.423.423,0,0,0-6.891,0ZM0-14.062A1.688,1.688,0,0,0-1.687-15.75H-9.562a1.688,1.688,0,0,0-1.687,1.688V.563A1.688,1.688,0,0,0-9.562,2.25h7.875A1.688,1.688,0,0,0,0,.563Zm-1.125,0V.563a.564.564,0,0,1-.562.563H-9.562a.564.564,0,0,1-.562-.562V-14.062a.564.564,0,0,1,.563-.562h7.875A.564.564,0,0,1-1.125-14.062Z" transform="translate(11.25 15.75)" fill="#fff"/>
</svg>
