<svg xmlns="http://www.w3.org/2000/svg" width="18" height="13.5" viewBox="0 0 18 13.5">
  <path id="photo" d="M-1.687,0A1.687,1.687,0,0,0,0-1.687V-11.812A1.687,1.687,0,0,0-1.687-13.5H-16.312A1.687,1.687,0,0,0-18-11.812V-1.687A1.687,1.687,0,0,0-16.312,0ZM-14.062-11.531a1.969,1.969,0,0,1,1.969,1.969,1.969,1.969,0,0,1-1.969,1.969,1.969,1.969,0,0,1-1.969-1.969A1.969,1.969,0,0,1-14.062-11.531ZM-15.75-2.25V-3.937l2.514-2.514a.422.422,0,0,1,.6,0L-10.687-4.5l4.764-4.764a.422.422,0,0,1,.6,0L-2.25-6.187V-2.25Z" transform="translate(18 13.5)" fill="#fff"/>
</svg>
