<svg xmlns="http://www.w3.org/2000/svg" width="17.438" height="17.438" viewBox="0 0 17.438 17.438">
  <path id="refresh" d="M-1-14.749l-1.834,1.834A8.69,8.69,0,0,0-9-15.469,8.719,8.719,0,0,0-17.708-7.19a.421.421,0,0,0,.422.44h.986a.421.421,0,0,0,.421-.4A6.887,6.887,0,0,1-9-13.641a6.868,6.868,0,0,1,4.873,2.017l-1.9,1.9a.422.422,0,0,0,.3.72H-.7a.422.422,0,0,0,.422-.422V-14.45A.422.422,0,0,0-1-14.749Zm.288,8H-1.7a.421.421,0,0,0-.421.4A6.887,6.887,0,0,1-9,.141a6.868,6.868,0,0,1-4.873-2.017l1.9-1.9a.422.422,0,0,0-.3-.72H-17.3a.422.422,0,0,0-.422.422V.95a.422.422,0,0,0,.72.3l1.834-1.834A8.69,8.69,0,0,0-9,1.969,8.719,8.719,0,0,0-.292-6.31.421.421,0,0,0-.714-6.75Z" transform="translate(17.719 15.469)" fill="#fff"/>
</svg>
