<svg xmlns="http://www.w3.org/2000/svg" width="24.234" height="19.81" viewBox="0 0 24.234 19.81">
  <path id="Regions" d="M974.764,72.321a1.568,1.568,0,0,0,.326.326.7.7,0,0,0,.22.22,1.57,1.57,0,0,0,.326.326.7.7,0,0,0,.22.22,1.57,1.57,0,0,0,.326.326.7.7,0,0,0,.22.22c.1.133.255.235.221.434l0,.273,0,.819a.234.234,0,0,0,.1.289,2.073,2.073,0,0,0,.335.421.172.172,0,0,0,.094.114,2.644,2.644,0,0,0,.39.49.552.552,0,0,0,.171.216,1.829,1.829,0,0,0,.312.389.547.547,0,0,0,.176.22l.293.373a.714.714,0,0,0,.195.236,1.607,1.607,0,0,0,.287.363.361.361,0,0,0,.142.172,2.131,2.131,0,0,0,.342.432.24.24,0,0,0,.274.156,3.007,3.007,0,0,0,.653.123.453.453,0,0,0,.272.056l.651.139.263.054a3.984,3.984,0,0,0,.672.123.336.336,0,0,0,.219.05,3.037,3.037,0,0,0,.653.123l.1.05-.256,1.059-.1.414-.256,1.039a1.042,1.042,0,0,0-.09.38l-.053.059a1.584,1.584,0,0,0-.437.153,10.965,10.965,0,0,0-1.2.4,1.447,1.447,0,0,0-.437.149,10.933,10.933,0,0,0-1.2.4,1.441,1.441,0,0,0-.437.149,3.734,3.734,0,0,1-1.038.226l-.273,0-.819,0-.273,0-.819,0c-.158.009-.341-.1-.464.087q-.344.528-.685,1.057c-.185.268-.386.526-.549.806-.11.189-.23.253-.428.167-.041-.055-.1-.05-.162-.055a2.925,2.925,0,0,0-.657-.217c-.041-.055-.1-.05-.162-.055a2.907,2.907,0,0,0-.657-.217c-.041-.055-.1-.05-.162-.055a2.905,2.905,0,0,0-.657-.217c-.041-.055-.1-.05-.162-.055a2.883,2.883,0,0,0-.657-.217c-.041-.055-.1-.05-.162-.055-.006-.006-.011-.016-.019-.019-.68-.263-.68-.263-1.006.389l-.412.827-.194-.316a.424.424,0,0,0-.114-.227,2.091,2.091,0,0,0-.233-.478.269.269,0,0,0-.09-.167c-.031-.219-.159-.3-.373-.267a3.456,3.456,0,0,1-.347.013l-.144-.024-.2-.591-.082-.224-.192-.595-.081-.224c-.092-.2-.03-.476-.289-.6a.158.158,0,0,0-.131-.067,3.181,3.181,0,0,0-.633-.315l-.165-.093-.438-.234-.093-.169a3.706,3.706,0,0,0-.324-.651c-.011-.042-.009-.091-.058-.114a2.253,2.253,0,0,0-.24-.486l-.013-.329q0-.408,0-.817l0-.275a1.783,1.783,0,0,0-.29-.651c-.012-.043-.011-.093-.061-.116a2.52,2.52,0,0,0-.273-.547l-.079-.165c-.088-.145-.229-.058-.346-.075-.151-.022-.309.03-.456-.04a.094.094,0,0,0-.056-.1,2.871,2.871,0,0,0-.31-.554.491.491,0,0,0-.127-.216,2.1,2.1,0,0,0-.277-.484.264.264,0,0,0-.1-.168,2.95,2.95,0,0,0-.326-.572l-.047-.085-.3-.539a.612.612,0,0,0-.143-.241,2.013,2.013,0,0,0-.271-.474.418.418,0,0,0-.121-.213,2.852,2.852,0,0,0-.309-.543c-.013-.044-.016-.093-.068-.114a2.131,2.131,0,0,0-.278-.49.259.259,0,0,0-.1-.167c-.019-.12-.09-.159-.209-.155-.189.006-.379,0-.568,0l.069-.215c.178-.345.365-.686.531-1.036.075-.159.161-.255.347-.216a.567.567,0,0,0,.729-.437c.092-.263.259-.5.365-.758a.37.37,0,0,1,.447-.279,1.463,1.463,0,0,0,.3-.011l.273,0a2.146,2.146,0,0,0,.546,0c.044.008.049-.016.04-.05q0-.273,0-.546c.037-.128-.053-.185-.138-.244l-.367-.368-.179-.179c.077-.234.353-.188.485-.344l.538-.262c.555-.265,1.111-.527,1.646-.831.107-.011.2-.12.317-.054a2.408,2.408,0,0,0,.493.326c.009.044.045.049.08.056a3.173,3.173,0,0,0,.575.381c.009.044.045.049.08.056a3.17,3.17,0,0,0,.575.381c.009.044.045.049.08.056l.519.382a.356.356,0,0,0,.169.14,1.709,1.709,0,0,0,.367.29.614.614,0,0,0,.222.182l.386.306a.539.539,0,0,0,.219.174,2.85,2.85,0,0,0,.49.394l.115.09a2.073,2.073,0,0,0,.415.333.453.453,0,0,0,.189.151,2.081,2.081,0,0,0,.422.336.259.259,0,0,0,.142.117c.194.268.471.227.745.2l.273,0,.819,0,.273,0,.819,0,.265.022.02.689c.116.094.247.033.371.035.165.037.361-.045.488.132A.7.7,0,0,0,974.764,72.321Z" transform="translate(-958.986 -66.851)" fill="#7ac04e"/>
</svg>
