<svg xmlns="http://www.w3.org/2000/svg" width="13.5" height="18.004" viewBox="0 0 13.5 18.004">
  <path id="report_2" d="M6.254-12.308,3.3-15.258a1.688,1.688,0,0,0-1.192-.5H-5.062A1.693,1.693,0,0,0-6.75-14.062V.563A1.688,1.688,0,0,0-5.062,2.25H5.063A1.688,1.688,0,0,0,6.75.563V-11.113A1.7,1.7,0,0,0,6.254-12.308Zm-.795.8a.553.553,0,0,1,.148.26H2.25v-3.357a.553.553,0,0,1,.26.148Zm-.4,12.635H-5.062A.564.564,0,0,1-5.625.563V-14.062a.564.564,0,0,1,.563-.562H1.125v3.656a.842.842,0,0,0,.844.844H5.625V.563A.564.564,0,0,1,5.063,1.125ZM3.375-7.453a.423.423,0,0,0-.422-.422H-2.953a.423.423,0,0,0-.422.422v.281a.423.423,0,0,0,.422.422H2.953a.423.423,0,0,0,.422-.422Zm0,2.25a.423.423,0,0,0-.422-.422H-2.953a.423.423,0,0,0-.422.422v.281a.423.423,0,0,0,.422.422H2.953a.423.423,0,0,0,.422-.422Zm0,2.25a.423.423,0,0,0-.422-.422H-2.953a.423.423,0,0,0-.422.422v.281a.423.423,0,0,0,.422.422H2.953a.423.423,0,0,0,.422-.422Z" transform="translate(6.75 15.754)" fill="#fff"/>
</svg>
