<svg xmlns="http://www.w3.org/2000/svg" width="18" height="18" viewBox="0 0 18 18">
  <path id="Reporting" d="M-6.181-12.937c-1.727,0-3.28-1.125-5.692-1.125a7.8,7.8,0,0,0-2.838.533,2.023,2.023,0,0,0,.087-.534c0-.054-.005-.141-.011-.195A1.692,1.692,0,0,0-16.2-15.746,1.688,1.688,0,0,0-18-14.062a1.686,1.686,0,0,0,.844,1.461V1.688a.562.562,0,0,0,.563.563h.563a.562.562,0,0,0,.563-.562V-1.246a9.676,9.676,0,0,1,4.494-1c1.727,0,3.28,1.125,5.692,1.125A8.168,8.168,0,0,0-.763-2.531,1.686,1.686,0,0,0,0-3.943v-8.435a1.687,1.687,0,0,0-2.352-1.551A10.055,10.055,0,0,1-6.181-12.937Zm4.494,9a6.612,6.612,0,0,1-3.6,1.125c-2.107,0-3.586-1.125-5.692-1.125a12.059,12.059,0,0,0-4.494.844V-11.25a6.613,6.613,0,0,1,3.6-1.125c2.107,0,3.586,1.125,5.692,1.125a12.021,12.021,0,0,0,4.494-1.125Z" transform="translate(18 15.75)" fill="#fff"/>
</svg>
