<svg xmlns="http://www.w3.org/2000/svg" width="13.5" height="18" viewBox="0 0 13.5 18">
  <path id="report" d="M-5.625-10.969V-15.75h-7.031a.842.842,0,0,0-.844.844V1.406a.842.842,0,0,0,.844.844H-.844A.842.842,0,0,0,0,1.406V-10.125H-4.781A.846.846,0,0,1-5.625-10.969Zm-5.625-2.25a.281.281,0,0,1,.281-.281h2.813a.281.281,0,0,1,.281.281v.563a.281.281,0,0,1-.281.281h-2.812a.281.281,0,0,1-.281-.281Zm0,2.25a.281.281,0,0,1,.281-.281h2.813a.281.281,0,0,1,.281.281v.563a.281.281,0,0,1-.281.281h-2.812a.281.281,0,0,1-.281-.281ZM-4.472-2.25h1.659a.562.562,0,0,1,.563.563.562.562,0,0,1-.562.563H-4.472A1.511,1.511,0,0,1-5.83-1.964a.39.39,0,0,0-.358-.229.383.383,0,0,0-.352.218l-.27.539a.615.615,0,0,1-.5.311h0l-.04,0a.561.561,0,0,1-.493-.383l-.592-1.774-.373,1.121a1.518,1.518,0,0,1-1.441,1.038h-.436a.562.562,0,0,1-.562-.562.562.562,0,0,1,.563-.562h.436a.394.394,0,0,0,.374-.269l.639-1.921a.845.845,0,0,1,.8-.577.843.843,0,0,1,.8.577l.488,1.464a1.578,1.578,0,0,1,2.32.5A.4.4,0,0,0-4.472-2.25Zm4.225-9.809L-3.688-15.5a.843.843,0,0,0-.6-.246H-4.5v4.5H0v-.214A.841.841,0,0,0-.246-12.059Z" transform="translate(13.5 15.75)" fill="#fff"/>
</svg>
