<svg xmlns="http://www.w3.org/2000/svg" width="17.438" height="17.438" viewBox="0 0 17.438 17.438">
  <path id="sad" d="M-8.719-15.469A8.717,8.717,0,0,0-17.437-6.75,8.717,8.717,0,0,0-8.719,1.969,8.717,8.717,0,0,0,0-6.75,8.717,8.717,0,0,0-8.719-15.469Zm0,15.75A7.038,7.038,0,0,1-15.75-6.75a7.038,7.038,0,0,1,7.031-7.031A7.038,7.038,0,0,1-1.687-6.75,7.038,7.038,0,0,1-8.719.281Zm-2.812-7.594a1.124,1.124,0,0,0,1.125-1.125,1.124,1.124,0,0,0-1.125-1.125,1.124,1.124,0,0,0-1.125,1.125A1.124,1.124,0,0,0-11.531-7.312Zm5.625-2.25A1.124,1.124,0,0,0-7.031-8.437,1.124,1.124,0,0,0-5.906-7.312,1.124,1.124,0,0,0-4.781-8.437,1.124,1.124,0,0,0-5.906-9.562Zm-2.812,4.5a4.74,4.74,0,0,0-3.649,1.709.843.843,0,0,0,.109,1.188.846.846,0,0,0,1.188-.109,3.059,3.059,0,0,1,2.352-1.1,3.047,3.047,0,0,1,2.352,1.1.846.846,0,0,0,1.188.109A.846.846,0,0,0-5.07-3.354,4.74,4.74,0,0,0-8.719-5.062Z" transform="translate(17.438 15.469)" fill="#fff"/>
</svg>
