<svg xmlns="http://www.w3.org/2000/svg" width="16.875" height="17.998" viewBox="0 0 16.875 17.998">
  <path id="safe" d="M0-1.35V-12.234l-5.024,2.092A10.9,10.9,0,0,0,0-1.35ZM7.4-12.807.65-15.62A2.018,2.018,0,0,0,0-15.749a2.018,2.018,0,0,0-.649.129L-7.4-12.807A1.686,1.686,0,0,0-8.437-11.25c0,6.979,4.025,11.8,7.787,13.37a1.693,1.693,0,0,0,1.3,0C3.66.865,8.438-3.47,8.438-11.25A1.688,1.688,0,0,0,7.4-12.807ZM0,.563C-3.428-.865-6.75-5.3-6.75-11.25L0-14.062,6.75-11.25C6.75-5.14,3.291-.809,0,.563Z" transform="translate(8.438 15.749)" fill="#fff"/>
</svg>
