<svg xmlns="http://www.w3.org/2000/svg" xmlns:xlink="http://www.w3.org/1999/xlink" width="25.417" height="14.829" viewBox="0 0 25.417 14.829">
  <defs>
    <clipPath id="clip-path">
      <rect id="Rectangle_1586" data-name="Rectangle 1586" width="25.417" height="14.829" rx="2" fill="none"/>
    </clipPath>
    <clipPath id="clip-path-2">
      <rect id="Rectangle_1585" data-name="Rectangle 1585" width="25.417" height="14.829" fill="none"/>
    </clipPath>
  </defs>
  <g id="SAUDI_ARABIA" data-name="SAUDI ARABIA" transform="translate(0)">
    <g id="Group_36637" data-name="Group 36637" transform="translate(0 0)">
      <g id="Group_36636" data-name="Group 36636">
        <g id="Group_36635" data-name="Group 36635" clip-path="url(#clip-path)">
          <path id="Path_132848" data-name="Path 132848" d="M0,0H25.417V14.829H0Z" fill="#007c3b"/>
          <g id="Group_36634" data-name="Group 36634">
            <g id="Group_36633" data-name="Group 36633" clip-path="url(#clip-path-2)">
              <path id="Path_132816" data-name="Path 132816" d="M9.494,5.377c-.025.346-.057.958.237,1.02.356.033.16-.6.288-.719.025-.056.07-.056.073.015v.541a.256.256,0,0,0,.2.26c.093-.005.155,0,.192.089q.023.466.043.931s.217.065.228-.523a5.476,5.476,0,0,1-.023-.7c0-.065.085-.071.145-.036.093.065.135.145.279.112.22-.062.351-.165.355-.337a1.483,1.483,0,0,0-.1-.482c.01-.03-.043-.1-.033-.133.039.062.1.056.112,0a.48.48,0,0,0-.189-.293c-.079-.068-.194-.053-.236.092a.8.8,0,0,0,.181.518.511.511,0,0,1,.045.26.141.141,0,0,1-.179-.036s-.177-.133-.177-.16a.631.631,0,0,0-.014-.417.536.536,0,0,0-.117-.225c-.043-.051-.1-.051-.131,0a.781.781,0,0,0,.014.55c.039.119.1.192.073.192-.025.068-.074.051-.111-.027a1.924,1.924,0,0,1-.061-.506c-.016-.133-.034-.417-.121-.491-.053-.071-.133-.036-.161.033a2.486,2.486,0,0,0,.009.385,4.194,4.194,0,0,1,.108.621c.008.293-.168.127-.161-.021a1.328,1.328,0,0,0-.005-.559c-.029-.076-.063-.095-.134-.08-.056-.006-.2.151-.239.411a2.255,2.255,0,0,0-.048.254c-.02.133-.109.227-.17-.021-.055-.18-.086-.624-.176-.52" transform="translate(-2.3 -1.174)" fill="#fff"/>
              <path id="Path_132817" data-name="Path 132817" d="M10.479,7.378c-.314.157-.619.3-.928.447a.948.948,0,0,1,.734-.6c.191.006.142.074.194.148" transform="translate(-2.318 -1.755)" fill="#fff"/>
              <path id="Path_132818" data-name="Path 132818" d="M11.806,4.84a.266.266,0,0,0-.059.017.173.173,0,0,0-.124.216c.089.544.146.959.236,1.5a.116.116,0,0,1-.107.142c-.118-.08-.147-.242-.346-.233a.393.393,0,0,0-.332.31.791.791,0,0,0,0,.355.292.292,0,0,0,.332.083c.087-.036.16-.124.191-.1h0c.02.036,0,.32-.413.535-.254.113-.454.142-.563-.065-.065-.129.005-.621-.159-.508-.488,1.26,1.144,1.437,1.326.053.012-.039.049-.077.074-.068s.02.02.023.05c-.037,1.252-1.262,1.334-1.469.944a1.19,1.19,0,0,1-.073-.423.224.224,0,0,0-.05-.139c-.05-.035-.116.062-.131.231a1.531,1.531,0,0,0-.015.3c.065.994,1.642.568,1.9-.252A2.814,2.814,0,0,0,12.085,7h.005l0,0c.16.169.377.021.426-.036a.074.074,0,0,1,.11-.011.252.252,0,0,0,.38-.107,3.7,3.7,0,0,0,.053-.47.457.457,0,0,0-.17.071.05.05,0,0,0-.012.023c-.006.042-.013.089-.02.133l0,.012a.036.036,0,0,1-.016.011.051.051,0,0,1-.08-.036c-.037-.168-.192-.2-.287.071-.065.053-.179.062-.192-.012.016-.18-.057-.2-.2-.121-.045-.355-.093-.692-.139-1.047.061,0,.114.045.17-.023a2.006,2.006,0,0,0-.257-.6h0l-.011-.011,0,0h0l-.008-.006c-.008,0-.014,0-.02,0m-.438,1.943a.082.082,0,0,1,.086.054.1.1,0,0,1-.017.095h0c-.013.02-.055.011-.086.011a.079.079,0,0,1-.076-.039c-.011-.033.02-.065.035-.092h0l0-.008a.121.121,0,0,1,.054-.021" transform="translate(-2.462 -1.174)" fill="#fff"/>
              <path id="Path_132819" data-name="Path 132819" d="M13.558,4.8a.3.3,0,0,0-.11.03.214.214,0,0,0-.037.281c.062.027.124.092.082.124-.174.186-.632.5-.654.559h0v0h0l0,0h0a1.165,1.165,0,0,0,.341,0v0h0a4.731,4.731,0,0,0,.563-.568c-.023-.02-.047-.036-.07-.056a.038.038,0,0,1,0-.065.187.187,0,0,0,.02-.284.28.28,0,0,0-.14-.027m-.021.163c.029,0,.062.027.079.062s.009.076-.019.086a.092.092,0,0,1-.086-.059c-.019-.042-.008-.08.021-.086l.005,0" transform="translate(-3.116 -1.165)" fill="#fff"/>
              <path id="Path_132820" data-name="Path 132820" d="M9.545,8.59a.922.922,0,0,0-.093.817.2.2,0,0,0,.2.065.361.361,0,0,0,.131-.349c-.036-.06-.065-.068-.1-.018-.076.154-.108.048-.115-.042a2.076,2.076,0,0,1,.02-.438c.02-.121,0-.086-.038-.036" transform="translate(-2.28 -2.074)" fill="#fff"/>
              <path id="Path_132821" data-name="Path 132821" d="M18.868,7.213c-.167-.364-.4-.722-.475-.858s-.635-.95-.717-1.044c-.183-.216.3.092-.061-.34-.134-.116-.142-.122-.257-.217-.055-.041-.2-.112-.218.006a.681.681,0,0,0,.011.257.893.893,0,0,0,.144.219,16.113,16.113,0,0,1,1.558,2.5c.077-.036.061-.464.015-.526" transform="translate(-4.158 -1.14)" fill="#fff"/>
              <path id="Path_132822" data-name="Path 132822" d="M18.447,8.451c-.034.036.081.2.231.2a.872.872,0,0,0,.672-.538.96.96,0,0,0,.154-.414A9.113,9.113,0,0,0,19.336,5.6a.328.328,0,0,1,.006-.145c.016-.02.071,0,.1-.047s-.113-.406-.2-.545c-.032-.062-.043-.1-.1.006a.794.794,0,0,0-.087.4c.119.822.155,1.547.234,2.37a.326.326,0,0,1-.058.242,2.294,2.294,0,0,1-.787.574" transform="translate(-4.476 -1.165)" fill="#fff"/>
              <path id="Path_132823" data-name="Path 132823" d="M22.857,8.434c-.18.1-.18.225-.034.228a.9.9,0,0,0,.75-.358,1.187,1.187,0,0,0,.12-.461,10.854,10.854,0,0,0-.136-2.263.979.979,0,0,1-.025-.213c.017-.039.1.005.125-.042.045-.042-.208-.37-.3-.509-.031-.062-.042-.1-.095.009a.634.634,0,0,0-.052.393,21.672,21.672,0,0,1,.251,2.556.724.724,0,0,1-.05.211,1.589,1.589,0,0,1-.244.286c-.083.06-.256.119-.313.163" transform="translate(-5.513 -1.154)" fill="#fff"/>
              <path id="Path_132824" data-name="Path 132824" d="M22.894,7.63c0-.211.006-.391,0-.548s-.079-.742-.1-.866-.049-.317-.083-.468a1.275,1.275,0,0,1-.031-.266c.014-.042.071,0,.1-.048a1.643,1.643,0,0,0-.236-.657c-.033-.062-.095-.042-.169.059-.072.065-.045.213-.019.355A13.008,13.008,0,0,1,22.634,8c-.01.074.264-.228.261-.37" transform="translate(-5.417 -1.151)" fill="#fff"/>
              <path id="Path_132825" data-name="Path 132825" d="M21.194,6.789c-.113,0-.35-.219-.419-.346a.247.247,0,0,1,.014-.186c.042-.027.107-.059.154-.027,0,0,.05.068.041.077.061.03.088.011.095-.015s-.02-.068-.02-.115a.131.131,0,0,1,.233-.068.476.476,0,0,1,.063.231c0,.038-.061-.006-.1,0s-.043.047-.046.083c-.007.1-.017.248-.019.364" transform="translate(-5.039 -1.47)" fill="#fff"/>
              <path id="Path_132826" data-name="Path 132826" d="M18.41,7.863A9.755,9.755,0,0,0,18.4,6.828c-.01-.4-.076-1.162-.106-1.29-.036-.242.1.027.079-.115a1.536,1.536,0,0,0-.333-.625c-.051-.07-.048-.086-.127.018a.74.74,0,0,0,.011.485,9.012,9.012,0,0,1,.21,1.409,12.444,12.444,0,0,1,.012,1.5c.086,0,.221-.139.269-.343" transform="translate(-4.337 -1.151)" fill="#fff"/>
              <path id="Path_132827" data-name="Path 132827" d="M22.981,7.406c-.2-.335-.5-.725-.579-.858s-.759-1.127-.844-1.215c-.248-.257.114-.042-.046-.246a2.031,2.031,0,0,0-.294-.284c-.058-.036-.094-.109-.114.012a2.536,2.536,0,0,0-.008.326.409.409,0,0,0,.1.2,18.667,18.667,0,0,1,1.782,2.588c.076-.036.05-.464,0-.523" transform="translate(-5.119 -1.152)" fill="#fff"/>
              <path id="Path_132828" data-name="Path 132828" d="M18.224,13.457h0a.167.167,0,0,0-.056.307c-1.857,0-4.707-.03-5.316-.03-.343,0-1.423-.041-1.443-.041a1.1,1.1,0,0,0,1.006.413c.825,0,4.645-.008,5.731-.008a.377.377,0,0,0,.069.4l0,0,.007,0h0c.073.017.1-.036.129-.071a7.59,7.59,0,0,0,.834,0h0c.04.059.082.116.159.107.135-.03.242-.045.246-.32,0,0-.014-.467-.322-.438-.073.009-.276.03-.276.03-.237-.027-.411-.03-.677-.042.025-.03.067-.157.015-.2a.093.093,0,0,0-.064-.018h-.005l-.006-.006v0a.573.573,0,0,1-.03-.08h-.006m.126.669h0c.27.011.524,0,.8.014a.1.1,0,0,1-.008.136l0,0h-.008l-.226-.006c0-.006,0-.009,0-.014-.021-.062-.172-.057-.208-.006h0l0,0,0,.006v.005l0,.009a1.893,1.893,0,0,1-.346-.012c-.033-.041-.03-.118.011-.139" transform="translate(-2.768 -3.266)" fill="#fff"/>
              <path id="Path_132829" data-name="Path 132829" d="M14.187,5.044c-.18.514.1,1.082.3,1.029.142.056.232-.216.291-.512.041-.083.07-.092.091-.05-.005.4.028.485.129.6a.324.324,0,0,0,.429.006c.014-.012.176-.175.176-.175a.105.105,0,0,1,.147-.006c.053.048.046.133.161.189a.346.346,0,0,0,.352-.073c.065-.11.08-.148.109-.189.047-.062.125-.036.125-.015-.007.036-.051.068-.023.13.057.042.069.015.1.006.115-.056.2-.3.2-.3,0-.095-.048-.086-.083-.065s-.045.035-.09.062c-.055.005-.164.044-.217-.039a3.439,3.439,0,0,1-.1-.343c0-.006-.072-.157,0-.169.033.006.105.027.118-.036.036-.059-.077-.23-.154-.314A.168.168,0,0,0,16,4.771c-.062.057-.055.124-.067.184a.284.284,0,0,0,.06.248.758.758,0,0,1,.139.506.21.21,0,0,1-.183.095c-.047-.012-.127-.033-.169-.341-.03-.236.008-.568-.092-.719-.036-.095-.061-.186-.149-.023a.366.366,0,0,0-.051.352,1.045,1.045,0,0,1,.056.548.992.992,0,0,1-.105.151.177.177,0,0,1-.223.03.24.24,0,0,1-.133-.186,2.66,2.66,0,0,0-.023-.607.107.107,0,0,0-.182-.039,1.364,1.364,0,0,0-.333.683c-.052.166-.108.119-.145.051-.093-.086-.1-.772-.213-.66" transform="translate(-3.429 -1.124)" fill="#fff"/>
              <path id="Path_132830" data-name="Path 132830" d="M14.339,6.586l-.005,0,0,0c-.012.006-.027.027-.058.05-.055.062-.061.1-.058.222,0,.015.1.284.183.476a1.5,1.5,0,0,1,.07.642,1.565,1.565,0,0,1-.647.674.329.329,0,0,1-.27,0v0a.161.161,0,0,1-.073-.154h0a1.54,1.54,0,0,0,.651-.671.7.7,0,0,0,.018-.485.485.485,0,0,0-.111-.222l0,0c.036-.017.13.053.146.009A.7.7,0,0,0,14,6.784a.158.158,0,0,0-.23-.015c-.078.045-.094.2-.058.34.042.1.157.119.238.326v0a.4.4,0,0,1-.014.216,2.479,2.479,0,0,1-.488.456l0,0v0h-.005l0,0a.468.468,0,0,0,0-.068c0-.059.024-.2.023-.228h0v0h0c-.139.092-.186.37-.213.453a6.227,6.227,0,0,0-.989.677c-.121.186.833-.219.944-.266l0,0c.02.02.02.1.085.174a.5.5,0,0,0,.515.169,1.647,1.647,0,0,0,.745-.622c.028-.041.074-.073.114-.041a1.166,1.166,0,0,0,1.056.553c.119-.145.063-.219.014-.245-.016-.012-.257-.107-.295-.2s.033-.163.149-.222a5.087,5.087,0,0,0,.974-.186.843.843,0,0,1,.107-.334.148.148,0,0,1,.055-.059l0,0h0v0l0-.006-.055-.033-1.059-.006a.154.154,0,0,1-.03-.014h0v0h0l0,0h0v0h0v0h0v0h0l0,0a.076.076,0,0,1,.033-.02c.254-.033.7-.107.732-.541a.375.375,0,0,0-.372-.411.379.379,0,0,0-.325.429c-.008.056.021.171-.038.183-.39.039-.815.281-.83.455h-.005l0,0h-.005l0,0a.1.1,0,0,1-.051-.106,2.084,2.084,0,0,0-.268-.906c-.054-.056-.078-.076-.095-.08h-.006m1.547.388a.129.129,0,0,1,.083.02.1.1,0,0,1,.065.089v.006h0l0,0v0l-.007.006c-.02.02-.066.017-.111-.009a.113.113,0,0,1-.065-.086V7l0-.009,0-.006h0l0-.006a.04.04,0,0,1,.026-.008m-.984.893h.012a3.151,3.151,0,0,0,.443.051c.123.008.184.1.069.145S15.2,8.13,15.2,8.3c.014.08.012.124,0,.142l0,.006,0,0h0v0h0l0,0-.006,0c-.028,0-.067-.027-.1-.039a.611.611,0,0,1-.294-.435.112.112,0,0,1,.111-.116" transform="translate(-2.972 -1.598)" fill="#fff"/>
              <path id="Path_132831" data-name="Path 132831" d="M11.234,5.09c.123.056.351.033.342-.163,0-.018,0-.077-.005-.092-.023-.059-.093-.048-.108.014,0,.018.008.051-.009.062s-.05,0-.049-.05a.081.081,0,0,0-.02-.048.037.037,0,0,0-.027-.008c-.017,0-.017.005-.023.02a.116.116,0,0,0-.01.045c0,.02-.011.027-.025.03s-.011,0-.026-.006-.017-.012-.017-.027a.228.228,0,0,0-.006-.048.053.053,0,0,0-.03-.017c-.067,0-.072.076-.067.106-.006.006-.008.142.083.181" transform="translate(-2.706 -1.164)" fill="#fff"/>
              <path id="Path_132832" data-name="Path 132832" d="M15.955,7.089c.123.056.412.023.343-.166a.846.846,0,0,0-.008-.092c-.024-.059-.092-.045-.108.014,0,.021.01.054-.008.065s-.049,0-.048-.053a.077.077,0,0,0-.02-.045.039.039,0,0,0-.028-.008c-.016,0-.016.005-.026.02a.168.168,0,0,0-.008.045c0,.02-.01.027-.025.03s-.01,0-.024-.006-.017-.012-.017-.027a.112.112,0,0,0-.008-.048.047.047,0,0,0-.03-.017c-.066,0-.07.076-.067.106,0,0-.007.139.083.181" transform="translate(-3.852 -1.649)" fill="#fff"/>
              <path id="Path_132833" data-name="Path 132833" d="M18.709,6.261c.121.057.351.03.341-.165,0-.015,0-.074,0-.092-.027-.057-.095-.045-.108.017-.006.018.007.05-.011.059s-.048.006-.047-.05a.11.11,0,0,0-.02-.048.062.062,0,0,0-.027,0c-.016,0-.016,0-.026.018a.152.152,0,0,0-.009.047.025.025,0,0,1-.025.027c-.014,0-.012,0-.023-.005a.031.031,0,0,1-.017-.027.209.209,0,0,0-.008-.051.081.081,0,0,0-.03-.012c-.067,0-.072.077-.067.1,0,.006-.008.142.083.18" transform="translate(-4.52 -1.448)" fill="#fff"/>
              <path id="Path_132834" data-name="Path 132834" d="M20.118,7.535a.744.744,0,0,0-.071.722.57.57,0,0,0,.263.3.182.182,0,0,0,.275-.03c.124-.13.127-.458.186-.523a.109.109,0,0,1,.194-.048.527.527,0,0,0,.179.154.3.3,0,0,0,.392.027.444.444,0,0,0,.21-.254,9.25,9.25,0,0,0,.015-1.5c-.006-.036-.12-.615-.12-.621s-.016-.3-.028-.364c0-.03-.01-.038.02-.035.031.03.034.032.055.038s.059-.047.04-.1c-.1-.177-.195-.357-.292-.532-.022-.027-.053-.05-.091,0a.211.211,0,0,0-.07.16c.008.127.031.257.039.385.039.216.078.435.117.654.036.464.046.891.083,1.355-.006.2-.066.459-.126.482,0,0-.085.053-.144,0a1.71,1.71,0,0,1-.214-.284.129.129,0,0,0-.208,0,2.879,2.879,0,0,0-.364.686c-.031.048-.115.089-.208,0a.974.974,0,0,1-.129-.671" transform="translate(-4.85 -1.151)" fill="#fff"/>
              <path id="Path_132835" data-name="Path 132835" d="M18.765,4.847a.4.4,0,0,1,.16.373c-.022.133-.079.281-.121.261s.03-.133-.011-.254c-.026-.08-.174-.222-.158-.267-.031-.089.064-.13.131-.112" transform="translate(-4.521 -1.175)" fill="#fff"/>
              <path id="Path_132836" data-name="Path 132836" d="M20.444,7.675a3.274,3.274,0,0,0-.023-.585c-.007-.154-.176-1.423-.211-1.541-.041-.222.165-.03.142-.16-.071-.163-.248-.4-.3-.544-.036-.062-.021-.115-.1-.014a1.251,1.251,0,0,0-.067.556A12.133,12.133,0,0,1,20.22,8.06c.084,0,.182-.192.224-.385" transform="translate(-4.824 -1.159)" fill="#fff"/>
              <path id="Path_132837" data-name="Path 132837" d="M23.05,5.261c.1.053.16.328.148.408-.019.145-.072.3-.11.281s.008-.216-.012-.275c-.023-.086-.158-.243-.144-.29a.1.1,0,0,1,.117-.124" transform="translate(-5.564 -1.276)" fill="#fff"/>
              <path id="Path_132838" data-name="Path 132838" d="M13.277,7.94c.094.036.151.24.14.3-.019.107-.07.219-.105.207s.008-.16-.011-.2c-.008-.11-.14-.166-.137-.213-.025-.086.054-.1.114-.089" transform="translate(-3.194 -1.926)" fill="#fff"/>
              <path id="Path_132839" data-name="Path 132839" d="M9.915,4.757c.141.042.148.248.14.31-.02.11-.07.228-.107.213s0-.163-.02-.21C9.908,5,9.789,4.887,9.8,4.852c-.027-.074.053-.11.111-.095" transform="translate(-2.378 -1.154)" fill="#fff"/>
              <path id="Path_132840" data-name="Path 132840" d="M13.581,6.041a.251.251,0,0,0-.082.334.163.163,0,0,0,.174.054c.106.014.169-.2.169-.2s0-.059-.121.053c-.054.012-.06-.009-.074-.039a.26.26,0,0,1,.017-.165c.019-.054-.022-.077-.083-.039" transform="translate(-3.268 -1.461)" fill="#fff"/>
              <path id="Path_132841" data-name="Path 132841" d="M14.632,4.646a.389.389,0,0,0-.164.279c0,.07-.018.07.03.118s.07.044.139.006a.144.144,0,0,0,.067-.095c.017-.083-.086.038-.1-.054s.044-.118.108-.2c0-.056,0-.095-.077-.051" transform="translate(-3.51 -1.123)" fill="#fff"/>
              <path id="Path_132842" data-name="Path 132842" d="M15.531,4.771a2.377,2.377,0,0,0-.052.322c-.014.08.09.116.136.012a.945.945,0,0,0,.074-.352c-.021-.121-.1-.115-.158.018" transform="translate(-3.756 -1.133)" fill="#fff"/>
              <path id="Path_132843" data-name="Path 132843" d="M20.964,7.433c.014-.011.579-.413.579-.413.058-.021.045.207.02.2a2.245,2.245,0,0,1-.6.417c-.027.017-.056-.157,0-.208" transform="translate(-5.08 -1.703)" fill="#fff"/>
              <path id="Path_132844" data-name="Path 132844" d="M21.616,7.562c.1.05.14.34.129.42,0,.154-.1.278-.134.261s0-.192-.015-.254c-.023-.086-.109-.245-.094-.293a.1.1,0,0,1,.114-.133" transform="translate(-5.217 -1.834)" fill="#fff"/>
              <path id="Path_132845" data-name="Path 132845" d="M17.211,9.171a.842.842,0,0,1,.161-.139.1.1,0,0,1,.109.021c.01.053-.035.106-.02.18.011.03.02.065.075.05a.38.38,0,0,1,.263-.076c.07,0,.071.118.029.118a1.934,1.934,0,0,0-.358.127.08.08,0,0,1-.1-.015.1.1,0,0,1-.011-.1c.005-.06-.019-.092-.07-.089-.037.024-.07.036-.089-.005s-.009-.051.015-.068" transform="translate(-4.172 -2.19)" fill="#fff"/>
              <path id="Path_132846" data-name="Path 132846" d="M22.4,9.374a.073.073,0,0,1,0,.109c-.041.039-.067.057-.108.095-.017.033-.03.08.027.095.105.03.35-.127.35-.133a.072.072,0,0,0,.023-.086c-.023-.027-.073-.011-.108-.011-.018,0-.072-.012-.046-.057A.419.419,0,0,0,22.58,9.3c.015-.039,0-.062-.058-.083a.507.507,0,0,0-.151,0c-.036.008-.048.027-.055.068,0,.065.043.062.086.089" transform="translate(-5.406 -2.235)" fill="#fff"/>
            </g>
          </g>
        </g>
      </g>
    </g>
  </g>
</svg>
