<svg xmlns="http://www.w3.org/2000/svg" width="18.001" height="18.001" viewBox="0 0 18.001 18.001">
  <path id="search" d="M-.123,1.181-4.658-3.354a.417.417,0,0,0-.3-.123h-.362A7.28,7.28,0,0,0-3.375-8.437a7.311,7.311,0,0,0-7.312-7.312A7.311,7.311,0,0,0-18-8.437a7.311,7.311,0,0,0,7.313,7.313A7.294,7.294,0,0,0-5.727-3.066v.359a.432.432,0,0,0,.123.3l4.535,4.535a.422.422,0,0,0,.6,0l.348-.348A.422.422,0,0,0-.123,1.181ZM-10.687-2.25a6.183,6.183,0,0,1-6.187-6.187,6.183,6.183,0,0,1,6.188-6.187A6.183,6.183,0,0,1-4.5-8.437,6.183,6.183,0,0,1-10.687-2.25Z" transform="translate(18 15.75)" fill="#fff"/>
</svg>
