<svg xmlns="http://www.w3.org/2000/svg" width="15.75" height="18" viewBox="0 0 15.75 18">
  <path id="Services" d="M-12.656-9.562h9.563a.281.281,0,0,0,.281-.281v-1.125a.281.281,0,0,0-.281-.281h-.281a4.262,4.262,0,0,0-2.4-3.627l-.97,1.941v-2.25a.563.563,0,0,0-.562-.562H-8.437A.563.563,0,0,0-9-15.187v2.25l-.97-1.941a4.262,4.262,0,0,0-2.4,3.627h-.281a.281.281,0,0,0-.281.281v1.125A.281.281,0,0,0-12.656-9.562Zm7.931,6.188h-.587a7.279,7.279,0,0,1-2.563.563,7.279,7.279,0,0,1-2.563-.562h-.587A4.727,4.727,0,0,0-15.75,1.35a.9.9,0,0,0,.9.9H-.9a.9.9,0,0,0,.9-.9A4.727,4.727,0,0,0-4.725-3.375ZM-7.875-4.5A4.485,4.485,0,0,0-3.432-8.437h-8.887A4.485,4.485,0,0,0-7.875-4.5Z" transform="translate(15.75 15.75)" fill="#fff"/>
</svg>
