<svg xmlns="http://www.w3.org/2000/svg" width="16.785" height="17.437" viewBox="0 0 16.785 17.437">
  <path id="setting" d="M7.97-5.229,6.823-5.89a8.277,8.277,0,0,0,.054-.86,8.277,8.277,0,0,0-.054-.86L7.97-8.271a.842.842,0,0,0,.388-.967,8.7,8.7,0,0,0-2.023-3.5A.844.844,0,0,0,5.3-12.89l-1.145.661a8.2,8.2,0,0,0-1.488-.861v-1.322a.844.844,0,0,0-.65-.822,8.781,8.781,0,0,0-4.035,0,.844.844,0,0,0-.65.822v1.322a8.2,8.2,0,0,0-1.488.861L-5.3-12.89a.844.844,0,0,0-1.035.151,8.7,8.7,0,0,0-2.023,3.5.842.842,0,0,0,.388.967l1.146.662a8.277,8.277,0,0,0-.054.86,8.277,8.277,0,0,0,.054.86l-1.146.662a.842.842,0,0,0-.388.967A8.7,8.7,0,0,0-6.335-.76.844.844,0,0,0-5.3-.61l1.145-.661A8.2,8.2,0,0,0-2.667-.41V.912a.844.844,0,0,0,.65.822,8.781,8.781,0,0,0,4.035,0,.844.844,0,0,0,.65-.822V-.41a8.2,8.2,0,0,0,1.488-.861L5.3-.61A.844.844,0,0,0,6.335-.76a8.7,8.7,0,0,0,2.023-3.5A.842.842,0,0,0,7.97-5.229ZM5.668-1.7,4.04-2.637a6.074,6.074,0,0,1-2.5,1.443V.687A9.188,9.188,0,0,1,0,.844,9.188,9.188,0,0,1-1.542.687v-1.88a6.075,6.075,0,0,1-2.5-1.443l-1.628.94a7.594,7.594,0,0,1-1.544-2.67l1.629-.94a6.126,6.126,0,0,1,0-2.886l-1.629-.94A7.6,7.6,0,0,1-5.668-11.8l1.628.941a6.066,6.066,0,0,1,2.5-1.444v-1.88A9.174,9.174,0,0,1,0-14.344a9.174,9.174,0,0,1,1.542.158v1.88a6.066,6.066,0,0,1,2.5,1.444L5.668-11.8A7.6,7.6,0,0,1,7.212-9.133l-1.629.94a6.125,6.125,0,0,1,0,2.886l1.629.94A7.594,7.594,0,0,1,5.668-1.7ZM0-10.125A3.379,3.379,0,0,0-3.375-6.75,3.379,3.379,0,0,0,0-3.375,3.379,3.379,0,0,0,3.375-6.75,3.379,3.379,0,0,0,0-10.125ZM0-4.5A2.253,2.253,0,0,1-2.25-6.75,2.253,2.253,0,0,1,0-9,2.253,2.253,0,0,1,2.25-6.75,2.253,2.253,0,0,1,0-4.5Z" transform="translate(8.393 15.469)" fill="#fff"/>
</svg>
