<svg xmlns="http://www.w3.org/2000/svg" width="15.75" height="18" viewBox="0 0 15.75 18">
  <path id="share_2" d="M-3.375-4.5A3.356,3.356,0,0,0-5.7-3.572L-9.155-5.734a3.4,3.4,0,0,0,0-2.032L-5.7-9.928A3.356,3.356,0,0,0-3.375-9,3.376,3.376,0,0,0,0-12.375,3.376,3.376,0,0,0-3.375-15.75,3.376,3.376,0,0,0-6.75-12.375,3.423,3.423,0,0,0-6.6-11.359L-10.051-9.2a3.356,3.356,0,0,0-2.324-.928A3.376,3.376,0,0,0-15.75-6.75a3.376,3.376,0,0,0,3.375,3.375A3.356,3.356,0,0,0-10.051-4.3L-6.6-2.141A3.44,3.44,0,0,0-6.75-1.125,3.376,3.376,0,0,0-3.375,2.25,3.376,3.376,0,0,0,0-1.125,3.376,3.376,0,0,0-3.375-4.5Zm0-9.562a1.688,1.688,0,0,1,1.688,1.688,1.688,1.688,0,0,1-1.687,1.688,1.688,1.688,0,0,1-1.687-1.687A1.688,1.688,0,0,1-3.375-14.062Zm-9,9A1.688,1.688,0,0,1-14.062-6.75a1.688,1.688,0,0,1,1.688-1.687A1.688,1.688,0,0,1-10.687-6.75,1.688,1.688,0,0,1-12.375-5.062Zm9,5.625A1.688,1.688,0,0,1-5.062-1.125,1.688,1.688,0,0,1-3.375-2.812,1.688,1.688,0,0,1-1.687-1.125,1.688,1.688,0,0,1-3.375.563Z" transform="translate(15.75 15.75)" fill="#fff"/>
</svg>
