<svg xmlns="http://www.w3.org/2000/svg" width="15.75" height="18" viewBox="0 0 15.75 18">
  <path id="share" d="M-3.375-4.5a3.361,3.361,0,0,0-2.1.735l-3.6-2.252A4.082,4.082,0,0,0-9-6.75a4.082,4.082,0,0,0-.08-.733l3.6-2.252A3.36,3.36,0,0,0-3.375-9,3.375,3.375,0,0,0,0-12.375,3.375,3.375,0,0,0-3.375-15.75,3.375,3.375,0,0,0-6.75-12.375a3.385,3.385,0,0,0,.08.733l-3.6,2.252a3.361,3.361,0,0,0-2.1-.735A3.375,3.375,0,0,0-15.75-6.75a3.375,3.375,0,0,0,3.375,3.375,3.361,3.361,0,0,0,2.1-.735l3.6,2.252a4.071,4.071,0,0,0-.08.732h0A3.375,3.375,0,0,0-3.375,2.25,3.375,3.375,0,0,0,0-1.125,3.375,3.375,0,0,0-3.375-4.5Z" transform="translate(15.75 15.75)" fill="#fff"/>
</svg>
