<svg xmlns="http://www.w3.org/2000/svg" width="18" height="18" viewBox="0 0 18 18">
  <path id="size" d="M-12.375-5.625h-1.969a.281.281,0,0,1-.281-.281v-.562a.281.281,0,0,1,.281-.281h1.969V-9h-1.969a.281.281,0,0,1-.281-.281v-.562a.281.281,0,0,1,.281-.281h1.969v-2.25h-1.969a.281.281,0,0,1-.281-.281v-.562a.281.281,0,0,1,.281-.281h1.969v-1.125A1.125,1.125,0,0,0-13.5-15.75h-3.375A1.125,1.125,0,0,0-18-14.625V1.125a1.082,1.082,0,0,0,.055.274l5.57-5.569Zm11.25,2.25H-2.25v1.969a.281.281,0,0,1-.281.281h-.562a.281.281,0,0,1-.281-.281V-3.375h-2.25v1.969a.281.281,0,0,1-.281.281h-.562a.281.281,0,0,1-.281-.281V-3.375H-9v1.969a.281.281,0,0,1-.281.281h-.562a.281.281,0,0,1-.281-.281V-3.375h-1.454l-5.57,5.57a1.085,1.085,0,0,0,.274.055h15.75A1.125,1.125,0,0,0,0,1.125V-2.25A1.125,1.125,0,0,0-1.125-3.375Z" transform="translate(18 15.75)" fill="#fff"/>
</svg>
