<svg xmlns="http://www.w3.org/2000/svg" width="16.544" height="15.553" viewBox="0 0 16.544 15.553">
  <path id="snapchat" d="M16.5,27.524c-.168.393-.88.681-2.177.883a6.061,6.061,0,0,0-.21.774.374.374,0,0,1-.392.287h-.01c-.3,0-.62-.14-1.255-.14a2.557,2.557,0,0,0-1.818.665,3.639,3.639,0,0,1-2.392.885A3.711,3.711,0,0,1,5.9,29.992a2.554,2.554,0,0,0-1.817-.665,12.2,12.2,0,0,0-1.255.153.383.383,0,0,1-.4-.292,5.985,5.985,0,0,0-.211-.78C1.543,28.3.037,28.041,0,27.369a.343.343,0,0,1,.287-.358,4.864,4.864,0,0,0,3.3-2.777l.008-.017a.734.734,0,0,0,.08-.606c-.163-.384-.868-.522-1.165-.64-.766-.3-.873-.65-.828-.889a.832.832,0,0,1,1.066-.5,1.849,1.849,0,0,0,.761.2.659.659,0,0,0,.322-.07,9.648,9.648,0,0,1,.184-3.747A4.4,4.4,0,0,1,8.1,15.334l.327,0a4.372,4.372,0,0,1,4.095,2.638,9.643,9.643,0,0,1,.184,3.748.633.633,0,0,0,.278.069,1.93,1.93,0,0,0,.713-.2.875.875,0,0,1,.662,0h0a.671.671,0,0,1,.5.577c.006.315-.275.587-.836.808-.068.027-.152.053-.24.082-.317.1-.795.252-.925.558a.734.734,0,0,0,.079.606l.008.017a4.863,4.863,0,0,0,3.3,2.777A.353.353,0,0,1,16.5,27.524Z" transform="translate(0.002 -15.331)" fill="#fff"/>
</svg>
