<svg xmlns="http://www.w3.org/2000/svg" width="22.5" height="18" viewBox="0 0 22.5 18">
  <path id="Special" d="M-3.937,0H-18.562a.564.564,0,0,0-.562.563V1.688a.564.564,0,0,0,.563.563H-3.937a.564.564,0,0,0,.563-.562V.563A.564.564,0,0,0-3.937,0Zm2.25-11.25A1.688,1.688,0,0,0-3.375-9.562a1.653,1.653,0,0,0,.155.7L-5.766-7.341A1.123,1.123,0,0,1-7.32-7.748l-2.865-5.013a1.68,1.68,0,0,0,.622-1.3A1.688,1.688,0,0,0-11.25-15.75a1.688,1.688,0,0,0-1.687,1.688,1.68,1.68,0,0,0,.622,1.3L-15.18-7.748a1.124,1.124,0,0,1-1.554.408l-2.542-1.526a1.7,1.7,0,0,0,.155-.7,1.688,1.688,0,0,0-1.687-1.687A1.691,1.691,0,0,0-22.5-9.562a1.688,1.688,0,0,0,1.688,1.688,1.726,1.726,0,0,0,.271-.028L-18-1.125H-4.5L-1.958-7.9a1.726,1.726,0,0,0,.271.028A1.688,1.688,0,0,0,0-9.562,1.688,1.688,0,0,0-1.687-11.25Z" transform="translate(22.5 15.75)" fill="#fff"/>
</svg>
