<svg xmlns="http://www.w3.org/2000/svg" width="83.403" height="17.143" viewBox="0 0 83.403 17.143">
  <g id="stc_logo_1" transform="translate(-3631.11 -1873.146)">
    <path id="Path_133169" data-name="Path 133169" d="M8.728,13.04H10.1V15H8.532a3.427,3.427,0,0,1-.672-.07,3.176,3.176,0,0,1-1.806,2.52,2.925,2.925,0,0,1-1.274.28,3.677,3.677,0,0,1-1.806-.49V15.476a2.9,2.9,0,0,0,1.414.406,1.8,1.8,0,0,0,.644-.112q.854-.294.854-1.568V9.778L7.916,8.7v.014L7.93,8.7v3.766Q8,13.04,8.728,13.04Zm5.642,0h1.358V15H14.174a2.659,2.659,0,0,1-1.624-.476A2.761,2.761,0,0,1,10.912,15H9.344V13.04h1.372a.876.876,0,0,0,.63-.182.876.876,0,0,0,.182-.63V9.778L13.558,8.7v3.528a.9.9,0,0,0,.175.63A.873.873,0,0,0,14.37,13.04ZM12.718,16.2a1,1,0,0,1,.742.28,1.022,1.022,0,0,1,.28.756,1.046,1.046,0,0,1-.28.763.99.99,0,0,1-.742.287.987.987,0,0,1-1.05-1.05,1.008,1.008,0,0,1,.287-.756A1.046,1.046,0,0,1,12.718,16.2Zm7.294-3.164H21.37V15H19.816a2.659,2.659,0,0,1-1.624-.476A2.761,2.761,0,0,1,16.554,15H14.986V13.04h1.372a.876.876,0,0,0,.63-.182.876.876,0,0,0,.182-.63V9.778L19.2,8.7v3.528a.9.9,0,0,0,.175.63A.873.873,0,0,0,20.012,13.04ZM16.218,16.2a.985.985,0,0,1,1.036,1.036,1.031,1.031,0,0,1-.287.763A1.129,1.129,0,0,1,15.455,18a1.037,1.037,0,0,1-.287-.756,1.013,1.013,0,0,1,.287-.749A1.031,1.031,0,0,1,16.218,16.2Zm2.338,0a1,1,0,0,1,.742.28,1.022,1.022,0,0,1,.28.756A1.046,1.046,0,0,1,19.3,18a.99.99,0,0,1-.742.287A1.018,1.018,0,0,1,17.793,18a1.037,1.037,0,0,1-.287-.756,1.013,1.013,0,0,1,.287-.749A1.031,1.031,0,0,1,18.556,16.2ZM25.248,7.65A.987.987,0,0,1,24.2,6.6a1.008,1.008,0,0,1,.287-.756,1.046,1.046,0,0,1,.763-.28,1,1,0,0,1,.742.28,1.022,1.022,0,0,1,.28.756,1.046,1.046,0,0,1-.28.763A.99.99,0,0,1,25.248,7.65ZM20.628,15V13.04H22.7a2.793,2.793,0,0,1-.308-1.316,3.425,3.425,0,0,1,.854-2.464,2.651,2.651,0,0,1,2.016-.812,2.508,2.508,0,0,1,1.988.812,2.67,2.67,0,0,1,.63,1.834v1.232a2.659,2.659,0,0,1-.728,1.946A2.536,2.536,0,0,1,25.234,15Zm5.222-3.962q0-.686-.588-.686-.868,0-.868,1.3,0,1.386.84,1.386.616,0,.616-.672Z" transform="translate(3647 1872)" fill="#502c84"/>
    <path id="Path_133170" data-name="Path 133170" d="M1.11,11.738q1.764-2.7,3.682-5.6H6.724v5.6H8.152v1.568H6.724V15H4.764V13.306H1.11Zm1.68,0H4.764V8.644q-.336.518-.84,1.316Zm13.1-4.592-.756,1.26a3.331,3.331,0,0,0-1.96-.756,1.779,1.779,0,0,0-1.5.861,3.635,3.635,0,0,0-.6,2.135,3.01,3.01,0,0,0,.8,2.184A2.044,2.044,0,0,0,13.4,13.5a2.873,2.873,0,0,0,.966-.154v-1.68H12.786V9.946H16.23v4.3a9.13,9.13,0,0,1-1.666.728,5.566,5.566,0,0,1-1.554.2A3.566,3.566,0,0,1,9.8,13.53a5.346,5.346,0,0,1-.77-2.94A4.89,4.89,0,0,1,10.224,7.2,3.646,3.646,0,0,1,13.066,5.97,3.947,3.947,0,0,1,15.894,7.146Z" transform="translate(3630 1872)" fill="#502c84"/>
    <g id="Page-1" transform="translate(-1796.477 6802.608)">
      <g id="stc-logo-white" transform="translate(5479.082 -4929.462)">
        <g id="Group" transform="translate(0 0)">
          <path id="Combined-Shape" d="M5494.576-4922.932v4.842a1.727,1.727,0,0,0,.372,1.241,1.738,1.738,0,0,0,1.242.4,2.865,2.865,0,0,0,1.664-.5v2.682a4.157,4.157,0,0,1-2.607.745,4.083,4.083,0,0,1-2.98-1.068,3.792,3.792,0,0,1-.968-2.707v-5.637Zm-10.354-3.55a5.506,5.506,0,0,1,3.923,1.464,3.339,3.339,0,0,1,1.019,2.061l-2.756.621a1.85,1.85,0,0,0-.472-1.018,2.35,2.35,0,0,0-1.688-.621c-1.118,0-1.813.5-1.813,1.216,0,.546.447.944,1.241,1.093l1.912.372a5.163,5.163,0,0,1,2.731,1.341,3.373,3.373,0,0,1,.994,2.434,3.617,3.617,0,0,1-1.068,2.607,5.536,5.536,0,0,1-3.923,1.391,5.728,5.728,0,0,1-4.172-1.59,3.519,3.519,0,0,1-1.068-2.185l2.831-.621a1.722,1.722,0,0,0,.5,1.142,2.582,2.582,0,0,0,1.913.721c1.142,0,1.837-.447,1.837-1.217,0-.621-.422-.969-1.365-1.192l-1.888-.447a5.38,5.38,0,0,1-2.607-1.316,3.105,3.105,0,0,1-.894-2.284,3.623,3.623,0,0,1,1.167-2.682A5.336,5.336,0,0,1,5484.222-4926.482Zm20.957,0a6.049,6.049,0,0,1,4.346,1.664,5.582,5.582,0,0,1,1.391,2.458l-2.955.994a3.172,3.172,0,0,0-.745-1.316,2.633,2.633,0,0,0-1.961-.745,3.037,3.037,0,0,0-2.186.869,3.56,3.56,0,0,0-.918,2.557,3.606,3.606,0,0,0,.918,2.558,3.117,3.117,0,0,0,2.21.894,2.827,2.827,0,0,0,2.036-.77,2.808,2.808,0,0,0,.77-1.291l2.905.968a5.5,5.5,0,0,1-1.49,2.508,5.9,5.9,0,0,1-4.221,1.614,6.376,6.376,0,0,1-4.544-1.813,6.5,6.5,0,0,1-1.887-4.668,6.563,6.563,0,0,1,1.837-4.668A6.3,6.3,0,0,1,5505.178-4926.482Zm-7.324.372v3.178h-3.278v-3.178Zm-3.278-3.352v3.352H5491.3v-3.352Z" transform="translate(-5479.082 4929.462)" fill="#502c84"/>
        </g>
      </g>
    </g>
  </g>
</svg>
