<svg xmlns="http://www.w3.org/2000/svg" width="37.03" height="18.5" viewBox="0 0 37.03 18.5">
  <g id="stc_logo_1" transform="translate(-5479.082 4929.462)">
    <g id="stc-logo-white" transform="translate(5479.082 -4929.462)">
      <g id="Group" transform="translate(0 0)">
        <path id="Combined-Shape" d="M5497.063-4921.883v5.62a2,2,0,0,0,.432,1.44,2.016,2.016,0,0,0,1.441.461,3.323,3.323,0,0,0,1.931-.577v3.112a4.822,4.822,0,0,1-3.026.865,4.738,4.738,0,0,1-3.458-1.239,4.4,4.4,0,0,1-1.123-3.141v-6.542ZM5485.047-4926a6.39,6.39,0,0,1,4.553,1.7,3.875,3.875,0,0,1,1.182,2.392l-3.2.721a2.145,2.145,0,0,0-.547-1.182,2.727,2.727,0,0,0-1.959-.72c-1.3,0-2.1.576-2.1,1.412,0,.634.519,1.1,1.44,1.268l2.219.432a5.988,5.988,0,0,1,3.17,1.557,3.916,3.916,0,0,1,1.153,2.824,4.2,4.2,0,0,1-1.24,3.025,6.425,6.425,0,0,1-4.553,1.614,6.648,6.648,0,0,1-4.841-1.845,4.083,4.083,0,0,1-1.239-2.536l3.285-.721a2,2,0,0,0,.576,1.326,3,3,0,0,0,2.219.836c1.325,0,2.132-.519,2.132-1.412,0-.72-.49-1.124-1.584-1.383l-2.19-.519a6.244,6.244,0,0,1-3.025-1.527,3.6,3.6,0,0,1-1.038-2.651,4.2,4.2,0,0,1,1.354-3.112A6.194,6.194,0,0,1,5485.047-4926Zm24.321,0a7.022,7.022,0,0,1,5.044,1.931,6.484,6.484,0,0,1,1.614,2.853l-3.43,1.153a3.682,3.682,0,0,0-.865-1.528,3.055,3.055,0,0,0-2.276-.864,3.524,3.524,0,0,0-2.536,1.008,4.131,4.131,0,0,0-1.066,2.968,4.184,4.184,0,0,0,1.066,2.968,3.617,3.617,0,0,0,2.565,1.038,3.282,3.282,0,0,0,2.363-.894,3.258,3.258,0,0,0,.894-1.5l3.372,1.124a6.383,6.383,0,0,1-1.729,2.911,6.851,6.851,0,0,1-4.9,1.873,7.4,7.4,0,0,1-5.273-2.1,7.54,7.54,0,0,1-2.19-5.417,7.617,7.617,0,0,1,2.132-5.417A7.312,7.312,0,0,1,5509.368-4926Zm-8.5.432v3.688h-3.8v-3.688Zm-3.8-3.89v3.89h-3.8v-3.89Z" transform="translate(-5479.082 4929.462)" fill="#502c84"/>
      </g>
    </g>
  </g>
</svg>
