<svg id="tamm_logo_2" xmlns="http://www.w3.org/2000/svg" width="39.148" height="24.569" viewBox="0 0 39.148 24.569">
  <path id="Path_131767" data-name="Path 131767" d="M-934.737,1067.347c1,0,1.918-.008,2.837,0,.365,0,.192-.176.136-.327a6.464,6.464,0,0,1,.014-4.936,4.671,4.671,0,0,1,4.367-2.916,5.992,5.992,0,0,1,3.214.513,4.824,4.824,0,0,1,2.7,4.227,6.109,6.109,0,0,1-.585,3.435h.942c.838,0,1.676.008,2.514,0a2.365,2.365,0,0,0,2.417-2.429c.009-.961.011-1.923,0-2.885,0-.254.067-.328.322-.321.645.018,1.292.005,1.937.007.131,0,.3-.039.288.182a22.846,22.846,0,0,1-.153,4.272,4.849,4.849,0,0,1-4.464,3.7c-1.5.043-2.995.007-4.492.02-.251,0-.3-.1-.288-.314.014-.282,0-.566,0-.9a1.324,1.324,0,0,0-.2.1,5.257,5.257,0,0,1-3.528,1.118c-2.871-.03-5.743-.015-8.614,0-.333,0-.477-.065-.431-.42a5.167,5.167,0,0,0,.005-.677c-.08-.058-.124-.016-.165.016a5.149,5.149,0,0,1-3.375,1.082c-2.747-.025-5.5-.009-8.243-.007a2.41,2.41,0,0,0-2.619,2.613c0,1.291-.008,2.583.006,3.874,0,.28-.061.382-.358.371-.631-.023-1.264-.007-1.9-.007-.154,0-.3.019-.3-.22.026-1.566-.089-3.136.049-4.7a4.863,4.863,0,0,1,4.884-4.477c1.044-.012,2.088-.009,3.132,0,.284,0,.331-.032.23-.334a6.136,6.136,0,0,1,.632-5.989,4.561,4.561,0,0,1,3.455-1.84,6.283,6.283,0,0,1,3.464.48,4.814,4.814,0,0,1,2.737,4.206A6.116,6.116,0,0,1-934.737,1067.347Zm7.8,0c1.591,0,2.452-.5,2.809-1.6a4.355,4.355,0,0,0,.075-2.078,2.219,2.219,0,0,0-1.934-1.912,5.381,5.381,0,0,0-1.843.032,2.11,2.11,0,0,0-.75.32,3.354,3.354,0,0,0-.68,4.172A2.37,2.37,0,0,0-926.942,1067.347Zm-12.66,0c.233,0,.357,0,.48,0a2.3,2.3,0,0,0,2.4-2.034,6.537,6.537,0,0,0,.02-1.438,2.275,2.275,0,0,0-1.85-2.091,5.4,5.4,0,0,0-1.962,0,1.947,1.947,0,0,0-.751.315,3.371,3.371,0,0,0-.692,4.171A2.387,2.387,0,0,0-939.6,1067.346Z" transform="translate(952.757 -1052.793)" fill="#d5d8dc"/>
  <path id="Path_131768" data-name="Path 131768" d="M-820.234,1035.732a6.442,6.442,0,0,1-3.854-1.477c-.2-.162-.245-.275-.043-.481q.691-.706,1.337-1.457c.169-.2.273-.172.466-.033a3.834,3.834,0,0,0,5.053-.251c.176-.153.275-.147.437.007.478.454.965.9,1.464,1.33.212.183.193.3,0,.488A6.76,6.76,0,0,1-820.234,1035.732Z" transform="translate(854.249 -1031.921)" fill="#d5d8dc"/>
  <path id="Path_131769" data-name="Path 131769" d="M-879.692,1125.234c0-.275-.007-.549,0-.823a1.2,1.2,0,0,1,.716-1.113,1.14,1.14,0,0,1,1.338.19c.2.179.281.17.48,0a1.211,1.211,0,0,1,2.024.77,19.193,19.193,0,0,1,.036,1.973c0,.164-.077.212-.228.212s-.175-.091-.174-.213c0-.549,0-1.1,0-1.647,0-.625-.32-1.007-.831-1.016-.532-.01-.864.376-.869,1.02,0,.521,0,1.043,0,1.564,0,.126.042.287-.182.292s-.215-.155-.215-.307c0-.507,0-1.015,0-1.523,0-.667-.306-1.041-.838-1.046s-.843.366-.846,1.032c0,.48.009.961-.006,1.441,0,.147.122.388-.19.4s-.2-.232-.206-.379C-879.7,1125.783-879.693,1125.508-879.692,1125.234Z" transform="translate(896.752 -1101.871)" fill="#d5d8dc"/>
  <path id="Path_131770" data-name="Path 131770" d="M-856.646,1125.277c0-.288-.013-.577,0-.864a1.221,1.221,0,0,1,.757-1.132,1.158,1.158,0,0,1,1.334.233c.17.161.248.153.416,0a1.161,1.161,0,0,1,1.336-.228,1.184,1.184,0,0,1,.746,1.095c.022.6,0,1.208.008,1.811,0,.162-.028.259-.224.253s-.186-.116-.186-.246c0-.563,0-1.125,0-1.688a.845.845,0,0,0-.813-.943.838.838,0,0,0-.867.929c-.011.549,0,1.1,0,1.647,0,.157.012.311-.223.3s-.171-.177-.172-.3c-.006-.521,0-1.043,0-1.564-.007-.636-.35-1.023-.883-1.01-.511.013-.817.393-.82,1.024,0,.521,0,1.043,0,1.564,0,.125.05.284-.18.288s-.224-.141-.223-.3C-856.645,1125.854-856.647,1125.566-856.646,1125.277Z" transform="translate(879.078 -1101.873)" fill="#d5d8dc"/>
  <path id="Path_131771" data-name="Path 131771" d="M-891.276,1124.778q0,.186,0,.371c0,.651-.2.96-.722,1.147a1.467,1.467,0,0,1-1.585-.373.809.809,0,0,1,.171-1.195,1.92,1.92,0,0,1,1.293-.3c.146,0,.362.1.428-.12a.559.559,0,0,0-.185-.6,1.283,1.283,0,0,0-.776-.207c-.166-.022-.477.175-.48-.177,0-.382.326-.153.5-.2a.988.988,0,0,1,.408.018,1.03,1.03,0,0,1,.947,1.135C-891.275,1124.449-891.276,1124.614-891.276,1124.778Zm-.955.026a4.157,4.157,0,0,0-.544.047c-.294.064-.567.2-.58.541s.256.482.544.571a1.044,1.044,0,0,0,.719-.045.721.721,0,0,0,.414-.917C-891.754,1124.636-892.064,1124.9-892.231,1124.8Z" transform="translate(907.539 -1101.824)" fill="#d5d8dc"/>
  <path id="Path_131772" data-name="Path 131772" d="M-902.773,1122.147c0-.384,0-.768,0-1.153,0-.133-.03-.279.192-.282s.22.136.2.271c-.062.366.143.4.424.377.109-.01.22,0,.329,0,.129,0,.164.063.161.179s-.028.19-.158.189a.241.241,0,0,0-.041,0c-.225.032-.517-.109-.662.1s-.039.48-.048.724-.01.467,0,.7a.846.846,0,0,0,.691.9c.167.045.241.095.214.265-.033.206-.171.123-.284.1a1.185,1.185,0,0,1-1.007-1.133c-.024-.411,0-.823,0-1.235Z" transform="translate(914.438 -1099.992)" fill="#d5d8dc"/>
</svg>
