<svg xmlns="http://www.w3.org/2000/svg" width="38.888" height="24.406" viewBox="0 0 38.888 24.406">
  <g id="tamm_logo_1" transform="translate(952.757 -1031.921)">
    <path id="Path_131767" data-name="Path 131767" d="M-934.856,1067.292c.991,0,1.905-.008,2.818,0,.363,0,.191-.175.135-.324a6.421,6.421,0,0,1,.014-4.9,4.641,4.641,0,0,1,4.338-2.9,5.955,5.955,0,0,1,3.192.509,4.793,4.793,0,0,1,2.687,4.2,6.069,6.069,0,0,1-.581,3.412h.935c.833,0,1.665.007,2.5,0a2.349,2.349,0,0,0,2.4-2.413c.009-.955.011-1.911,0-2.866,0-.253.067-.325.32-.318.641.018,1.283.005,1.924.007.13,0,.293-.039.286.181a22.7,22.7,0,0,1-.152,4.244,4.817,4.817,0,0,1-4.434,3.68c-1.487.043-2.975.007-4.463.02-.249,0-.3-.1-.286-.311.014-.28,0-.562,0-.892a1.306,1.306,0,0,0-.194.1,5.224,5.224,0,0,1-3.5,1.11c-2.852-.03-5.7-.015-8.557,0-.331,0-.474-.064-.428-.417a5.13,5.13,0,0,0,.005-.673c-.079-.058-.124-.016-.164.015a5.113,5.113,0,0,1-3.352,1.075c-2.729-.025-5.459-.008-8.188-.007a2.394,2.394,0,0,0-2.6,2.6c0,1.283-.008,2.566.006,3.849,0,.278-.06.379-.356.369-.627-.023-1.256-.007-1.883-.007-.153,0-.3.019-.295-.219.026-1.555-.088-3.115.048-4.664a4.831,4.831,0,0,1,4.852-4.448c1.037-.012,2.074-.009,3.111,0,.281,0,.329-.032.228-.332a6.1,6.1,0,0,1,.627-5.949,4.532,4.532,0,0,1,3.432-1.828,6.243,6.243,0,0,1,3.441.477,4.782,4.782,0,0,1,2.718,4.178A6.076,6.076,0,0,1-934.856,1067.292Zm7.744,0c1.58,0,2.435-.492,2.79-1.593a4.328,4.328,0,0,0,.075-2.064,2.2,2.2,0,0,0-1.921-1.9,5.353,5.353,0,0,0-1.831.032,2.1,2.1,0,0,0-.745.318,3.332,3.332,0,0,0-.676,4.144A2.354,2.354,0,0,0-927.113,1067.292Zm-12.576,0c.232,0,.355,0,.477,0a2.288,2.288,0,0,0,2.383-2.021,6.492,6.492,0,0,0,.02-1.429,2.26,2.26,0,0,0-1.837-2.077,5.369,5.369,0,0,0-1.949,0,1.934,1.934,0,0,0-.746.313,3.349,3.349,0,0,0-.687,4.143A2.371,2.371,0,0,0-939.689,1067.292Z" transform="translate(0 -20.914)" fill="#1e4488"/>
    <path id="Path_131768" data-name="Path 131768" d="M-820.26,1035.706a6.4,6.4,0,0,1-3.829-1.467c-.2-.161-.243-.273-.043-.478q.687-.7,1.328-1.448c.168-.195.272-.171.463-.033a3.809,3.809,0,0,0,5.019-.249c.175-.153.273-.146.434.007.475.451.958.894,1.454,1.321.211.182.191.3,0,.485A6.716,6.716,0,0,1-820.26,1035.706Z" transform="translate(-98.707)" fill="#7ac04e"/>
    <path id="Path_131769" data-name="Path 131769" d="M-879.692,1125.22c0-.273-.007-.545,0-.818a1.188,1.188,0,0,1,.712-1.105,1.133,1.133,0,0,1,1.329.189c.194.178.279.169.476,0a1.2,1.2,0,0,1,2.011.764,19.076,19.076,0,0,1,.036,1.959c0,.163-.076.211-.227.211s-.174-.09-.173-.212c0-.545,0-1.091,0-1.635,0-.621-.318-1-.826-1.009-.528-.01-.858.374-.863,1.013,0,.518,0,1.036,0,1.554,0,.125.042.286-.181.29s-.214-.155-.214-.305c0-.5,0-1.009,0-1.513,0-.663-.3-1.034-.832-1.039s-.838.364-.84,1.025c0,.477.009.954-.006,1.431,0,.146.121.385-.189.4s-.2-.231-.2-.376C-879.7,1125.766-879.693,1125.493-879.692,1125.22Z" transform="translate(-56.118 -70.091)" fill="#1e4488"/>
    <path id="Path_131770" data-name="Path 131770" d="M-856.646,1125.263c0-.286-.013-.573,0-.859a1.213,1.213,0,0,1,.752-1.124,1.15,1.15,0,0,1,1.325.232c.169.16.246.152.413,0a1.154,1.154,0,0,1,1.327-.227,1.176,1.176,0,0,1,.741,1.088c.022.6,0,1.2.009,1.8,0,.161-.028.257-.222.252s-.184-.115-.184-.245c0-.559,0-1.118,0-1.677a.839.839,0,0,0-.807-.937.833.833,0,0,0-.861.923c-.011.545,0,1.091,0,1.636,0,.156.012.309-.221.3s-.17-.176-.171-.3c-.006-.518,0-1.036,0-1.554-.007-.632-.348-1.016-.878-1-.508.013-.812.39-.815,1.017,0,.518,0,1.036,0,1.554,0,.125.05.282-.179.286s-.223-.14-.222-.3C-856.645,1125.836-856.647,1125.55-856.646,1125.263Z" transform="translate(-73.827 -70.093)" fill="#1e4488"/>
    <path id="Path_131771" data-name="Path 131771" d="M-891.293,1124.767c0,.123,0,.246,0,.368,0,.647-.2.954-.718,1.14a1.457,1.457,0,0,1-1.575-.371.8.8,0,0,1,.17-1.187,1.907,1.907,0,0,1,1.284-.3c.146,0,.36.1.425-.119a.555.555,0,0,0-.184-.592,1.276,1.276,0,0,0-.771-.206c-.165-.021-.474.174-.477-.176,0-.38.324-.152.5-.2a.983.983,0,0,1,.405.018,1.023,1.023,0,0,1,.941,1.127C-891.292,1124.44-891.293,1124.6-891.293,1124.767Zm-.949.025a4.146,4.146,0,0,0-.54.047c-.292.064-.563.2-.576.537s.254.479.541.567a1.037,1.037,0,0,0,.714-.044.716.716,0,0,0,.412-.911C-891.768,1124.626-892.076,1124.892-892.242,1124.792Z" transform="translate(-45.309 -70.044)" fill="#1e4488"/>
    <path id="Path_131772" data-name="Path 131772" d="M-902.773,1122.138c0-.382,0-.763,0-1.145,0-.132-.03-.278.19-.281s.219.136.2.27c-.062.364.142.4.422.375.108-.01.218,0,.327,0,.128,0,.163.063.16.178s-.028.189-.157.188a.226.226,0,0,0-.041,0c-.224.032-.513-.108-.658.1s-.039.477-.048.719-.01.464,0,.7a.84.84,0,0,0,.687.891c.166.045.239.094.212.263-.032.2-.169.122-.282.1a1.177,1.177,0,0,1-1-1.125c-.024-.408,0-.818,0-1.227Z" transform="translate(-38.396 -68.208)" fill="#1e4488"/>
  </g>
</svg>
