<svg xmlns="http://www.w3.org/2000/svg" width="18.032" height="14.646" viewBox="0 0 18.032 14.646">
  <path id="twitter" d="M16.179,51.732c.011.16.011.32.011.481A10.443,10.443,0,0,1,5.675,62.728,10.444,10.444,0,0,1,0,61.068a7.646,7.646,0,0,0,.892.046,7.4,7.4,0,0,0,4.588-1.579,3.7,3.7,0,0,1-3.455-2.563,4.66,4.66,0,0,0,.7.057A3.909,3.909,0,0,0,3.7,56.9,3.7,3.7,0,0,1,.732,53.277v-.046A3.722,3.722,0,0,0,2.4,53.7a3.7,3.7,0,0,1-1.144-4.943,10.5,10.5,0,0,0,7.62,3.867,4.172,4.172,0,0,1-.092-.847,3.7,3.7,0,0,1,6.4-2.529,7.276,7.276,0,0,0,2.346-.892A3.686,3.686,0,0,1,15.9,50.393a7.409,7.409,0,0,0,2.128-.572,7.945,7.945,0,0,1-1.854,1.911Z" transform="translate(0 -48.082)" fill="#fff"/>
</svg>
