<svg xmlns="http://www.w3.org/2000/svg" width="22.5" height="15.75" viewBox="0 0 22.5 15.75">
  <path id="uplode" d="M-11.514-9.826a.422.422,0,0,0-.6,0L-15.567-6.37a.422.422,0,0,0,0,.6l.2.2a.422.422,0,0,0,.6,0l2.4-2.4v5.3a.423.423,0,0,0,.422.422h.281a.423.423,0,0,0,.422-.422v-5.3l2.4,2.4a.422.422,0,0,0,.6,0l.2-.2a.422.422,0,0,0,0-.6ZM-2.4-7.355A3.968,3.968,0,0,0-2.25-8.437a3.935,3.935,0,0,0-3.937-3.937A3.894,3.894,0,0,0-7.875-12a6.181,6.181,0,0,0-5.062-2.63,6.189,6.189,0,0,0-6.18,5.913A5.062,5.062,0,0,0-22.5-3.937a5.059,5.059,0,0,0,5.063,5.063H-4.5A4.5,4.5,0,0,0,0-3.375,4.5,4.5,0,0,0-2.4-7.355ZM-4.5,0H-17.437a3.935,3.935,0,0,1-3.937-3.937,3.935,3.935,0,0,1,3.41-3.9,4.826,4.826,0,0,1-.035-.6A5.064,5.064,0,0,1-12.937-13.5a5.064,5.064,0,0,1,4.69,3.15,2.8,2.8,0,0,1,2.06-.9A2.812,2.812,0,0,1-3.375-8.437a2.806,2.806,0,0,1-.594,1.73A3.372,3.372,0,0,1-1.125-3.375,3.376,3.376,0,0,1-4.5,0Z" transform="translate(22.5 14.625)" fill="#fff"/>
</svg>
