<svg xmlns="http://www.w3.org/2000/svg" width="16.313" height="18" viewBox="0 0 16.313 18">
  <path id="uplode_2" d="M-15.627.72a5.217,5.217,0,0,0,7.384,0l6.886-6.89a.422.422,0,0,0,0-.6l-.6-.6a.422.422,0,0,0-.6,0L-9.436-.475a3.531,3.531,0,0,1-5,0,3.53,3.53,0,0,1,0-4.994l7.91-7.912a2.34,2.34,0,0,1,3.306,0,2.337,2.337,0,0,1,0,3.307L-9.878-3.411a1.146,1.146,0,0,1-1.619,0,1.144,1.144,0,0,1,0-1.619l5.641-5.642a.422.422,0,0,0,0-.6l-.6-.6a.422.422,0,0,0-.6,0L-12.69-6.224a2.831,2.831,0,0,0,0,4.006,2.835,2.835,0,0,0,4.005,0l6.661-6.662a4.024,4.024,0,0,0,0-5.693,4.03,4.03,0,0,0-5.693,0l-7.911,7.912A5.217,5.217,0,0,0-15.627.72Z" transform="translate(17.156 15.75)" fill="#fff"/>
</svg>
