<svg xmlns="http://www.w3.org/2000/svg" width="15.75" height="18" viewBox="0 0 15.75 18">
  <path id="user" d="M-4.725-5.625c-1.009,0-1.494.563-3.15.563s-2.137-.562-3.15-.562A4.726,4.726,0,0,0-15.75-.9V.563A1.688,1.688,0,0,0-14.062,2.25H-1.687A1.688,1.688,0,0,0,0,.563V-.9A4.726,4.726,0,0,0-4.725-5.625Zm3.6,6.188a.564.564,0,0,1-.562.563H-14.062a.564.564,0,0,1-.562-.562V-.9a3.6,3.6,0,0,1,3.6-3.6c.689,0,1.375.563,3.15.563S-5.414-4.5-4.725-4.5a3.6,3.6,0,0,1,3.6,3.6ZM-7.875-6.75a4.5,4.5,0,0,0,4.5-4.5,4.5,4.5,0,0,0-4.5-4.5,4.5,4.5,0,0,0-4.5,4.5A4.5,4.5,0,0,0-7.875-6.75Zm0-7.875A3.38,3.38,0,0,1-4.5-11.25,3.38,3.38,0,0,1-7.875-7.875,3.38,3.38,0,0,1-11.25-11.25,3.38,3.38,0,0,1-7.875-14.625Z" transform="translate(15.75 15.75)" fill="#fff"/>
</svg>
