<svg xmlns="http://www.w3.org/2000/svg" width="18" height="13.5" viewBox="0 0 18 13.5">
  <path id="video" d="M-.844-13.5h-.281v.7a.423.423,0,0,1-.422.422H-2.953a.423.423,0,0,1-.422-.422v-.7h-11.25v.7a.423.423,0,0,1-.422.422h-1.406a.423.423,0,0,1-.422-.422v-.7h-.281a.842.842,0,0,0-.844.844V-.844A.842.842,0,0,0-17.156,0h.281V-.7a.423.423,0,0,1,.422-.422h1.406a.423.423,0,0,1,.422.422V0h11.25V-.7a.423.423,0,0,1,.422-.422h1.406A.423.423,0,0,1-1.125-.7V0h.281A.842.842,0,0,0,0-.844V-12.656A.842.842,0,0,0-.844-13.5ZM-14.625-2.672a.423.423,0,0,1-.422.422h-1.406a.423.423,0,0,1-.422-.422V-4.078a.423.423,0,0,1,.422-.422h1.406a.423.423,0,0,1,.422.422Zm0-3.375a.423.423,0,0,1-.422.422h-1.406a.423.423,0,0,1-.422-.422V-7.453a.423.423,0,0,1,.422-.422h1.406a.423.423,0,0,1,.422.422Zm0-3.375A.423.423,0,0,1-15.047-9h-1.406a.423.423,0,0,1-.422-.422v-1.406a.423.423,0,0,1,.422-.422h1.406a.423.423,0,0,1,.422.422Zm9.563,7.313a.423.423,0,0,1-.422.422h-7.031a.423.423,0,0,1-.422-.422V-5.484a.423.423,0,0,1,.422-.422h7.031a.423.423,0,0,1,.422.422Zm0-5.906a.423.423,0,0,1-.422.422h-7.031a.423.423,0,0,1-.422-.422v-3.375a.423.423,0,0,1,.422-.422h7.031a.423.423,0,0,1,.422.422Zm3.938,5.344a.423.423,0,0,1-.422.422H-2.953a.423.423,0,0,1-.422-.422V-4.078A.423.423,0,0,1-2.953-4.5h1.406a.423.423,0,0,1,.422.422Zm0-3.375a.423.423,0,0,1-.422.422H-2.953a.423.423,0,0,1-.422-.422V-7.453a.423.423,0,0,1,.422-.422h1.406a.423.423,0,0,1,.422.422Zm0-3.375A.423.423,0,0,1-1.547-9H-2.953a.423.423,0,0,1-.422-.422v-1.406a.423.423,0,0,1,.422-.422h1.406a.423.423,0,0,1,.422.422Z" transform="translate(18 13.5)" fill="#fff"/>
</svg>
