<svg xmlns="http://www.w3.org/2000/svg" width="17.553" height="17.553" viewBox="0 0 17.553 17.553">
  <path id="whatsapp" d="M14.924,34.551a8.7,8.7,0,0,0-13.69,10.5L0,49.553l4.612-1.211A8.671,8.671,0,0,0,8.769,49.4h0a8.643,8.643,0,0,0,6.151-14.849ZM8.772,47.935A7.217,7.217,0,0,1,5.09,46.928l-.263-.157-2.735.717.729-2.668-.172-.274A7.244,7.244,0,1,1,16.083,40.7,7.31,7.31,0,0,1,8.772,47.935Zm3.965-5.415c-.215-.11-1.285-.635-1.485-.705s-.345-.11-.49.11-.56.705-.69.854-.255.165-.47.055a5.916,5.916,0,0,1-2.958-2.586c-.223-.384.223-.357.639-1.187a.4.4,0,0,0-.02-.38c-.055-.11-.49-1.179-.67-1.614s-.357-.364-.49-.372-.27-.008-.415-.008a.805.805,0,0,0-.58.27,2.442,2.442,0,0,0-.76,1.814,4.258,4.258,0,0,0,.885,2.249A9.712,9.712,0,0,0,8.949,44.3a4.253,4.253,0,0,0,2.609.545,2.226,2.226,0,0,0,1.465-1.034,1.818,1.818,0,0,0,.125-1.034C13.1,42.681,12.953,42.626,12.737,42.52Z" transform="translate(0 -32)" fill="#fff"/>
</svg>
