<svg xmlns="http://www.w3.org/2000/svg" width="18" height="15.754" viewBox="0 0 18 15.754">
  <path id="wich_2" d="M-1.884-13.489A5.3,5.3,0,0,0-9-12.962a5.292,5.292,0,0,0-7.116-.527,5.319,5.319,0,0,0-.373,7.777L-10.322.57A1.843,1.843,0,0,0-9,1.129,1.834,1.834,0,0,0-7.678.573l6.166-6.282A5.323,5.323,0,0,0-1.884-13.489ZM-2.714-6.9-8.88-.615a.145.145,0,0,1-.239,0L-15.286-6.9a3.626,3.626,0,0,1,.257-5.3,3.564,3.564,0,0,1,4.8.369L-9-10.571l1.23-1.255a3.562,3.562,0,0,1,4.8-.373A3.641,3.641,0,0,1-2.714-6.9Z" transform="translate(18 14.626)" fill="#fff"/>
</svg>
