<svg xmlns="http://www.w3.org/2000/svg" width="22.5" height="17.999" viewBox="0 0 22.5 17.999">
  <path id="write_coust" d="M-4.051-11.655l.144.144,2.52-2.524L-2.855-15.5a.974.974,0,0,0-.6-.245.974.974,0,0,0-.6.245l-1.332,1.331a.969.969,0,0,0-.245.594.97.97,0,0,0,.245.594Zm14.176,1.53H4.113L8.341-5.9A2.584,2.584,0,0,1,9-4.305H9v2.618a.563.563,0,0,1-.562.563H-1.969a.281.281,0,0,1-.281-.281v-.562a.281.281,0,0,1,.281-.281h5.73L1.512-4.5h-3.48a.281.281,0,0,1-.281-.281v-.562a.281.281,0,0,1,.281-.281H.387l-4.5-4.5h-6.012A1.125,1.125,0,0,0-11.25-9V1.125A1.125,1.125,0,0,0-10.125,2.25h20.25A1.125,1.125,0,0,0,11.25,1.125V-9A1.125,1.125,0,0,0,10.125-10.125Zm-16.312,9v.567a.281.281,0,0,1-.281.281h-.562a.281.281,0,0,1-.281-.281v-.573a2.363,2.363,0,0,1-1.1-.4.318.318,0,0,1-.109-.222.322.322,0,0,1,.088-.2l.413-.394a.334.334,0,0,1,.194-.075.339.339,0,0,1,.162.05,1,1,0,0,0,.451.131h.988a.442.442,0,0,0,.415-.464.459.459,0,0,0-.308-.448L-7.7-3.636a1.591,1.591,0,0,1-1.11-1.525,1.566,1.566,0,0,1,1.5-1.585v-.567a.281.281,0,0,1,.281-.281h.563a.281.281,0,0,1,.281.281v.573a2.36,2.36,0,0,1,1.1.4.318.318,0,0,1,.109.222.322.322,0,0,1-.089.2l-.413.394a.334.334,0,0,1-.195.075.339.339,0,0,1-.162-.05.989.989,0,0,0-.45-.131h-.988a.442.442,0,0,0-.415.464.459.459,0,0,0,.308.448l1.582.475a1.591,1.591,0,0,1,1.11,1.525A1.565,1.565,0,0,1-6.187-1.129Zm11.21-1.45a1.292,1.292,0,0,0,.8.329H7.313a.563.563,0,0,0,.563-.562V-4.305h0a1.292,1.292,0,0,0-.329-.8L-.592-13.237l-2.521,2.521Z" transform="translate(11.25 15.749)" fill="#fff"/>
</svg>
